<?xml version="1.0" encoding="utf-8"?>
<!-- Generator: Adobe Illustrator 24.2.1, SVG Export Plug-In . SVG Version: 6.00 Build 0)  -->
<svg version="1.1" id="Layer_1" xmlns="http://www.w3.org/2000/svg" xmlns:xlink="http://www.w3.org/1999/xlink" x="0px" y="0px"
	 viewBox="0 0 721.3 439.2" style="enable-background:new 0 0 721.3 439.2;" xml:space="preserve">
<style type="text/css">
	.st0{fill:#FFFFFF;}
</style>
<g>
	<g id="_x37_g02f3_7_">
		<g>
			<path class="st0" d="M684.5,89c-0.7-0.7-1.3-1.3-2-2c0-0.1,0.1-0.1,0.1-0.2c0.6-0.9,0.4-2.1-0.5-2.7c-1.4-0.9-3.1-0.5-4,1.1
				c-0.9,1.6-0.5,3.5,0.9,4.7c1.8,1.5,4.3,1.5,6.1,0.1c1.4-1.1,2.2-2.6,2.4-4.4c0.2-2.4-0.7-4.3-2.5-5.7c-2.8-2.3-6.7-2.5-9.7-0.6
				c-1.8,1.1-3.1,2.8-3.9,4.8c-1.5,3.9-1,7.5,1.5,10.8c1.8,2.4,4.3,3.9,7.2,4.6c3.5,0.9,6.9,0.5,10.2-1.2c0.2-0.1,0.3-0.2,0.2-0.4
				c-1.2-5.1-0.2-9.7,2.8-13.9c2.8-3.8,6.5-6,11.2-6.6c3.1-0.4,6,0.3,8.7,2c3.4,2.2,5.5,5.2,6.2,9.2c0.5,3.2-0.3,6.1-2.3,8.6
				c-1.8,2.2-4.1,3.6-6.9,4.1c-4.7,0.7-9.2-2.4-10.3-7c-1-4.3,2-8.7,6.4-9.3c3.5-0.5,6.9,2.2,7.1,5.7c0.2,2.9-2,5.5-4.8,5.7
				c-2.1,0.2-4-1.1-4.7-3.1c0-0.1,0-0.2-0.1-0.3c0.9-0.2,1.7-0.5,2.6-0.7c0.1,0.2,0.2,0.4,0.3,0.6c0.7,0.9,1.9,1.1,2.9,0.3
				c1.2-0.9,1.4-2.5,0.5-3.8c-1.1-1.8-3.4-2.2-5.3-1c-2.2,1.4-3,4-1.9,6.4c1.4,3.2,5,4.7,8.3,3.4c4.4-1.7,6.6-6.4,5.1-10.8
				c-1.6-4.5-5.7-7.4-10.5-7.3c-2.3,0-4.4,0.7-6.3,2c-4.2,2.7-6.4,6.5-6.6,11.5c0,0.1,0,0.2,0,0.3c0,0,0,0.1,0,0.1
				c0.7,0.3,1.5,0.5,2.2,0.8c3.8,1.6,6.6,4.3,8.4,8c2,4,2.3,8.2,0.9,12.5c-1.3,4-4,6.8-8,8.3c-3.4,1.3-6.9,1.4-10.2-0.2
				c-4.3-2.1-6.5-5.6-6.5-10.4c0-2.1,0.6-4.1,1.9-5.8c2.9-3.8,8.1-4.6,11.7-2.5c3.3,2,4.7,6.3,3,9.7c-1.6,3.2-5.6,4.5-8.7,2.8
				c-2.6-1.4-3.5-4.9-2-7.3c1.1-1.7,3.2-2.5,5.1-2c-0.2,0.9-0.5,1.7-0.7,2.6c-0.1,0-0.2,0-0.3,0c-0.9-0.1-1.8,0.5-2,1.4
				c-0.3,1.4,0.5,2.8,1.9,3.2c1.9,0.5,3.9-0.7,4.5-2.6c0.7-2.9-1.1-5.7-4.2-6.1c-3.4-0.5-6.7,1.7-7.3,5.2c-0.6,3.3,0.4,6.1,3,8.3
				c1.3,1.1,2.9,1.7,4.6,1.9c3.7,0.4,6.8-0.8,9.3-3.5c1.8-1.9,2.6-4.1,2.9-6.6c0.4-3.8-0.6-7.2-3-10.2c-1-1.3-2.2-2.3-3.6-3.2
				c-0.2-0.1-0.4-0.1-0.6,0.1c-2.7,2.6-5.9,4.1-9.7,4.5c-4.3,0.5-8.2-0.6-11.7-3.1c-2-1.4-3.6-3.2-4.6-5.4
				c-2.1-4.7-1.8-9.3,1.1-13.6c1.8-2.7,4.3-4.5,7.6-5c3.2-0.5,6,0.1,8.6,2c2.1,1.5,3.4,3.6,3.8,6.1c0.5,3.3-0.5,6.2-3.1,8.4
				c-2.7,2.4-6.9,2.3-9.7,0.1c-2.5-2-3.2-5.5-1.6-8.3c1.6-2.7,4.9-3.7,7.6-2.1c2.2,1.3,3,4,1.8,6.2C685,88.2,684.8,88.6,684.5,89z"
				/>
		</g>
	</g>
	<g id="_x35_dS9ys_7_">
		<g>
			<path class="st0" d="M25.6,125.4C11.5,125.4,0,113.8,0,99.7c0-14.2,11.6-25.6,26-25.5c13.9,0,25.4,11.6,25.3,25.7
				C51.3,113.9,39.7,125.4,25.6,125.4z M23.7,121.5c0-14.6,0-29.1,0-43.6c-9.6,0.6-19.5,8.8-20,20.9
				C3.2,111.8,13.6,120.9,23.7,121.5z M27.5,121.5c10-0.6,20.7-9.6,20-22.9c-0.7-13.1-11.7-20.4-20-20.6
				C27.5,92.5,27.5,107,27.5,121.5z"/>
		</g>
	</g>
	<g>
		<g>
			<path class="st0" d="M1.3,28.4h5.1c0.7,7.1,5,10.7,12.9,10.7c5.8,0,9.9-2.6,9.9-7.8c0-5.7-5-7.1-12.5-8.7C9.4,21,3.1,18.9,3.1,11
				c0-6.9,5.7-11,14.2-11c10.5,0,14.8,5.3,15.8,13h-5c-0.8-6-4.6-8.9-10.7-8.9C11.7,4.1,8,6.5,8,10.8c0,4.7,4.7,6.1,10.9,7.4
				c8.1,1.6,15.5,3.6,15.5,13c0,7.8-6.4,12.2-15.4,12.2C7.4,43.4,1.8,36.9,1.3,28.4z"/>
			<path class="st0" d="M52.2,0.8h5.9l15.4,41.8h-5.7l-4.4-12.7H46.7l-4.5,12.7h-5.4L52.2,0.8z M48.3,25.6h13.7l-4.8-14
				c-0.8-2.3-1.9-5.9-1.9-5.9h-0.1c0,0-1.1,3.5-1.9,5.9L48.3,25.6z"/>
			<path class="st0" d="M74.8,28.4H80c0.7,7.1,5,10.7,12.9,10.7c5.8,0,9.9-2.6,9.9-7.8c0-5.7-5-7.1-12.5-8.7
				C83,21,76.6,18.9,76.6,11c0-6.9,5.7-11,14.2-11c10.5,0,14.8,5.3,15.8,13h-5c-0.8-6-4.6-8.9-10.7-8.9c-5.7,0-9.4,2.4-9.4,6.7
				c0,4.7,4.7,6.1,10.9,7.4c8.1,1.6,15.5,3.6,15.5,13c0,7.8-6.4,12.2-15.4,12.2C80.9,43.4,75.3,36.9,74.8,28.4z"/>
			<path class="st0" d="M111.4,28.4h5.1c0.7,7.1,5,10.7,12.9,10.7c5.8,0,9.9-2.6,9.9-7.8c0-5.7-5-7.1-12.5-8.7
				c-7.4-1.6-13.7-3.7-13.7-11.6c0-6.9,5.7-11,14.2-11c10.5,0,14.8,5.3,15.8,13h-5c-0.8-6-4.6-8.9-10.7-8.9c-5.7,0-9.4,2.4-9.4,6.7
				c0,4.7,4.7,6.1,10.9,7.4c8.1,1.6,15.5,3.6,15.5,13c0,7.8-6.4,12.2-15.4,12.2C117.5,43.4,111.9,36.9,111.4,28.4z"/>
			<path class="st0" d="M160.1,24.9L144.9,0.8h5.8l12,19.9h0.1L175,0.8h5.6L165.3,25v17.6h-5.3V24.9z"/>
		</g>
		<g>
			<path class="st0" d="M620.1,22.5c0-13,6.1-20.9,15.6-20.9c9.5,0,15.5,7.8,15.5,20.9c0,12.7-5.5,20.9-15.5,20.9
				C625.7,43.5,620.1,35.3,620.1,22.5z M646.1,22.5c0-10.2-3.4-16.7-10.4-16.7c-7.1,0-10.5,6.4-10.5,16.7c0,10.2,3.4,16.6,10.5,16.6
				C642.8,39.2,646.1,32.9,646.1,22.5z"/>
			<path class="st0" d="M656.3,22.5c0-13,6.1-20.9,15.6-20.9s15.5,7.8,15.5,20.9c0,12.7-5.5,20.9-15.5,20.9
				C662,43.5,656.3,35.3,656.3,22.5z M682.3,22.5c0-10.2-3.4-16.7-10.4-16.7c-7.1,0-10.5,6.4-10.5,16.7c0,10.2,3.4,16.6,10.5,16.6
				C679,39.2,682.3,32.9,682.3,22.5z"/>
			<path class="st0" d="M692.4,31.7h5c0.4,4.4,3.4,7.6,8.8,7.6c3,0,5.2-0.9,6.8-2.6c2.4-2.6,3.3-7.1,3.6-13h-0.1
				c-2.6,3.2-6.3,5.1-11,5.1c-7.4,0-13.3-6.1-13.3-13.4c-0.1-7.5,5.9-13.7,14-13.7c3.9,0,7,1.2,9.2,3c4.6,3.5,6,9.2,6,18.2
				c0,8.1-1.6,14-5.6,17.5c-2.4,2.1-5.6,3.2-9.4,3.2C698.4,43.5,692.7,38.8,692.4,31.7z M715.8,15.1c0-5.7-4.4-9.5-9.8-9.5
				c-5.5,0-9.5,3.9-9.5,9.5s4.2,9.6,9.4,9.6C712,24.7,715.8,20.8,715.8,15.1z"/>
		</g>
	</g>
	<g>
		<g>
			<path class="st0" d="M1.3,424.2h5.1c0.7,7.1,5,10.7,12.9,10.7c5.8,0,9.9-2.6,9.9-7.8c0-5.7-5-7.1-12.5-8.7
				c-7.4-1.6-13.7-3.7-13.7-11.6c0-6.9,5.7-11,14.2-11c10.5,0,14.8,5.3,15.8,13h-5c-0.8-6-4.6-8.9-10.7-8.9c-5.7,0-9.4,2.4-9.4,6.7
				c0,4.7,4.7,6.1,10.9,7.4c8.1,1.6,15.5,3.6,15.5,13c0,7.8-6.4,12.2-15.4,12.2C7.4,439.1,1.8,432.6,1.3,424.2z"/>
			<path class="st0" d="M52.2,396.6h5.9l15.4,41.8h-5.7l-4.4-12.7H46.7l-4.5,12.7h-5.4L52.2,396.6z M48.3,421.3h13.7l-4.8-14
				c-0.8-2.3-1.9-5.9-1.9-5.9h-0.1c0,0-1.1,3.5-1.9,5.9L48.3,421.3z"/>
			<path class="st0" d="M74.8,424.2H80c0.7,7.1,5,10.7,12.9,10.7c5.8,0,9.9-2.6,9.9-7.8c0-5.7-5-7.1-12.5-8.7
				c-7.4-1.6-13.7-3.7-13.7-11.6c0-6.9,5.7-11,14.2-11c10.5,0,14.8,5.3,15.8,13h-5c-0.8-6-4.6-8.9-10.7-8.9c-5.7,0-9.4,2.4-9.4,6.7
				c0,4.7,4.7,6.1,10.9,7.4c8.1,1.6,15.5,3.6,15.5,13c0,7.8-6.4,12.2-15.4,12.2C80.9,439.1,75.3,432.6,74.8,424.2z"/>
			<path class="st0" d="M111.4,424.2h5.1c0.7,7.1,5,10.7,12.9,10.7c5.8,0,9.9-2.6,9.9-7.8c0-5.7-5-7.1-12.5-8.7
				c-7.4-1.6-13.7-3.7-13.7-11.6c0-6.9,5.7-11,14.2-11c10.5,0,14.8,5.3,15.8,13h-5c-0.8-6-4.6-8.9-10.7-8.9c-5.7,0-9.4,2.4-9.4,6.7
				c0,4.7,4.7,6.1,10.9,7.4c8.1,1.6,15.5,3.6,15.5,13c0,7.8-6.4,12.2-15.4,12.2C117.5,439.1,111.9,432.6,111.4,424.2z"/>
			<path class="st0" d="M160.1,420.6l-15.1-24.1h5.8l12,19.9h0.1l12.2-19.9h5.6l-15.3,24.2v17.6h-5.3V420.6z"/>
		</g>
		<g>
			<path class="st0" d="M620.1,418.3c0-13,6.1-20.9,15.6-20.9c9.5,0,15.5,7.8,15.5,20.9c0,12.7-5.5,20.9-15.5,20.9
				C625.7,439.2,620.1,431,620.1,418.3z M646.1,418.3c0-10.2-3.4-16.7-10.4-16.7c-7.1,0-10.5,6.4-10.5,16.7
				c0,10.2,3.4,16.6,10.5,16.6C642.8,434.9,646.1,428.6,646.1,418.3z"/>
			<path class="st0" d="M656.3,418.3c0-13,6.1-20.9,15.6-20.9s15.5,7.8,15.5,20.9c0,12.7-5.5,20.9-15.5,20.9
				C662,439.2,656.3,431,656.3,418.3z M682.3,418.3c0-10.2-3.4-16.7-10.4-16.7c-7.1,0-10.5,6.4-10.5,16.7c0,10.2,3.4,16.6,10.5,16.6
				C679,434.9,682.3,428.6,682.3,418.3z"/>
			<path class="st0" d="M692.4,427.5h5c0.4,4.4,3.4,7.6,8.8,7.6c3,0,5.2-0.9,6.8-2.6c2.4-2.6,3.3-7.1,3.6-13h-0.1
				c-2.6,3.2-6.3,5.1-11,5.1c-7.4,0-13.3-6.1-13.3-13.4c-0.1-7.5,5.9-13.7,14-13.7c3.9,0,7,1.2,9.2,3c4.6,3.5,6,9.2,6,18.2
				c0,8.1-1.6,14-5.6,17.5c-2.4,2.1-5.6,3.2-9.4,3.2C698.4,439.2,692.7,434.5,692.4,427.5z M715.8,410.9c0-5.7-4.4-9.5-9.8-9.5
				c-5.5,0-9.5,3.9-9.5,9.5s4.2,9.6,9.4,9.6C712,420.5,715.8,416.5,715.8,410.9z"/>
		</g>
	</g>
	<g>
		<path class="st0" d="M471,75.4c12.6,0,22.8,10.2,22.8,22.8c0,12.6-10.2,22.8-22.8,22.8c-12.6,0-22.8-10.2-22.8-22.8
			C448.2,85.6,458.4,75.4,471,75.4 M471,72.4c-14.2,0-25.8,11.6-25.8,25.8S456.8,124,471,124c14.2,0,25.8-11.6,25.8-25.8
			S485.2,72.4,471,72.4L471,72.4z"/>
		<circle class="st0" cx="471" cy="98.2" r="11.3"/>
	</g>
	<g>
		<path class="st0" d="M248.3,126.2l-1.3-2.6c-5-9.6-11-15-15.9-19.3c-5.9-5.3-10.6-9.5-10.6-18.1c0-6,4.6-14.5,15-14.5
			c6,0,10,2.2,12.8,7.2c2.8-4.9,6.9-7.2,12.8-7.2c10.3,0,15,8.5,15,14.5c0,8.6-4.7,12.8-10.6,18.1c-4.8,4.3-10.8,9.7-15.9,19.3
			L248.3,126.2z M235.5,74.8c-8.2,0-11.9,6.7-11.9,11.5c0,7.2,4,10.8,9.6,15.8c4.6,4.1,10.2,9.1,15.2,17.7
			c5-8.6,10.6-13.6,15.2-17.7c5.6-5,9.6-8.6,9.6-15.8c0-4.8-3.7-11.5-11.9-11.5c-5.8,0-9.1,2.4-11.4,8.2l-1.4,3.5l-1.4-3.5
			C244.6,77.2,241.3,74.8,235.5,74.8z"/>
	</g>
	<g>
		<path class="st0" d="M261.7,239.3h73.9c23.3,0,31.4,5.7,31.4,13.4c0,8.5-12.7,12.1-21.1,12.6c7.8,0.8,18.2,4.2,18.2,12.9
			c0,9.8-8.5,19.5-40.4,19.5h-79.2L261.7,239.3z M286.5,274.5l-2.4,8.1h32.7c8.6,0,9.9-2.5,9.9-4.3c0-1.9-1.1-3.8-8.5-3.8H286.5z
			 M292.6,253.8l-2.1,7.3h30c7.2,0,9.1-1.8,9.1-3.9c0-2.4-2.2-3.4-7.8-3.4H292.6z"/>
		<path class="st0" d="M399.5,297.7H366l17.3-59.4h33.5L399.5,297.7z"/>
		<path class="st0" d="M500.2,297.7h-33.4l2.1-6.8c-4.1,2.8-13.2,8.1-28,8.1h-1.1c-18.5,0-27.5-8.4-23.4-22.2l6.7-23h33.7l-5.9,20.6
			c-1.4,4.9,1.5,8.4,9.6,8.4c7.5,0,11.3-3.3,12.8-8.4l6.1-20.6h33.5L500.2,297.7z"/>
		<path class="st0" d="M562.3,298.9h-5.8c-34,0-42.4-10.7-42.4-21.1c0-8.9,6.9-25.2,47.7-25.2h5.3c40.1,0,47.2,11.5,43.2,25.1
			l-0.5,1.6H549c0.7,4.8,4.7,6.7,12.7,6.7c8.4,0,10.9-2.3,11.6-3.1h35.4C606.9,289.1,599.4,298.9,562.3,298.9z M550.4,270.4H577
			c0-3.6-3.1-6.3-12.4-6.3C556.5,264.1,552.4,266.7,550.4,270.4z"/>
	</g>
	<g>
		<path class="st0" d="M116.4,350.9l-2,6.7c-0.7,2.4,0,3.1,0.6,3.8l-0.1,0.4H78.7c-0.4-0.4-0.7-1.3-0.1-3.4l1.4-5.1
			c2.1-7.5-2.2-9-14.6-9h-24l-4.9,17.5H1.3l17.1-58.4h72.7c27.4,0,33.9,8.2,33.9,14.7c0,10.8-13.8,14.7-24.2,15.5
			C108.8,335,120.1,338.1,116.4,350.9z M46.2,328.2h31.4c7.9,0,9.5-2.7,9.5-4.8c0-2.2-1.3-4.1-7.9-4.1H48.8L46.2,328.2z"/>
		<path class="st0" d="M172,316.7h3.9c36.9,0,41.1,8.2,38.8,15.9l-3.8,12.6c-0.2,0.9,0.1,1.5,1.5,1.5h4.4l-4.5,15.1h-26.1
			c-6.6,0-9.4-3-10.4-5.2c-1.9,1.5-9.1,6.1-24.5,6.1h-2c-16.2,0-26-4.9-26-12.9c0-8.2,6.1-14.2,32.9-14.9l20.5-0.5
			c3.8-0.1,5.2-1,5.2-2.7c0-2-1.9-3.2-9.1-3.2h-0.5c-8.9,0-10,2.7-10.2,3.9h-32.6C130.8,325.7,136.1,316.7,172,316.7z M178.5,343.8
			l0.5-1.5l-11.1,1.1c-9.4,0.9-11.5,2.2-11.5,4.5c0,2.2,2.8,3.4,8,3.4C173.1,351.2,177.3,347.5,178.5,343.8z"/>
		<path class="st0" d="M314.5,343c-1.4,5.5-6.4,20-45.2,20h-5.8c-35.5,0-42.6-11.1-42.6-20.7c0-10.9,7.4-25.6,47.4-25.6h4.2
			c43.4,0,45.1,12.5,43.9,19.1h-34.9c-0.1-1.6-1.2-5.2-10.6-5.2h-0.9c-10.2,0-13.8,5.8-13.8,10.9c0,4.1,2.2,7.5,9.9,7.5h0.8
			c9.6,0,11.9-4.3,12.6-6H314.5z"/>
		<path class="st0" d="M367.4,363h-5.8c-34,0-42.4-10.7-42.4-21.1c0-8.9,6.9-25.2,47.7-25.2h5.3c40.1,0,47.2,11.5,43.2,25.1
			l-0.5,1.6h-60.8c0.7,4.8,4.7,6.7,12.7,6.7c8.4,0,10.9-2.3,11.6-3.1h35.4C412,353.2,404.6,363,367.4,363z M355.5,334.5h26.6
			c0-3.6-3.1-6.3-12.4-6.3C361.6,328.2,357.5,330.8,355.5,334.5z"/>
		<path class="st0" d="M513.5,343c-1.4,5.5-6.4,20-45.2,20h-5.8c-35.5,0-42.6-11.1-42.6-20.7c0-10.9,7.4-25.6,47.4-25.6h4.2
			c43.4,0,45.1,12.5,43.9,19.1h-34.9c-0.1-1.6-1.2-5.2-10.6-5.2h-0.9c-10.2,0-13.8,5.8-13.8,10.9c0,4.1,2.2,7.5,9.9,7.5h0.8
			c9.6,0,11.9-4.3,12.6-6H513.5z"/>
		<path class="st0" d="M564.5,316.7h3.9c36.9,0,41.1,8.2,38.8,15.9l-3.8,12.6c-0.2,0.9,0.1,1.5,1.5,1.5h4.4l-4.5,15.1h-26.1
			c-6.6,0-9.4-3-10.4-5.2c-1.9,1.5-9.1,6.1-24.5,6.1h-2c-16.2,0-26-4.9-26-12.9c0-8.2,6.1-14.2,32.9-14.9l20.5-0.5
			c3.8-0.1,5.2-1,5.2-2.7c0-2-1.9-3.2-9.1-3.2H565c-8.9,0-10,2.7-10.2,3.9h-32.6C523.3,325.7,528.6,316.7,564.5,316.7z M571,343.8
			l0.5-1.5l-11.1,1.1c-9.4,0.9-11.5,2.2-11.5,4.5c0,2.2,2.8,3.4,8,3.4C565.5,351.2,569.8,347.5,571,343.8z"/>
		<path class="st0" d="M659.5,332.9c-5.1,0-7.3,2-8.6,6.7l-6.6,22.3h-33.5l12.8-43.9h33.3l-2.1,7.1c2.4-2.2,10.2-8.2,23.9-8.2h1.3
			c14.6,0,20.5,6.9,20.5,14.7c0,4.2-2.2,9.2-2.9,10.4h-32.9l0.8-2.9C666.5,334.9,664.4,332.9,659.5,332.9z"/>
	</g>
	<polygon class="st0" points="188.3,270 183.4,287.1 161.3,287.1 166.2,270 	"/>
	<polygon class="st0" points="218.1,243.8 210.5,270 188.3,270 196,243.8 	"/>
	<polygon class="st0" points="173.9,243.8 166.3,270 144.1,270 151.8,243.8 	"/>
	<polygon class="st0" points="144.1,270 139.2,287.1 117.1,287.1 122,270 	"/>
	<polygon class="st0" points="99.9,270 94.9,287.1 72.8,287.1 77.8,270 	"/>
	<polygon class="st0" points="129.6,243.8 122,270 99.9,270 107.5,243.8 	"/>
	<polygon class="st0" points="85.4,243.8 77.8,270 55.7,270 63.3,243.8 	"/>
	<polygon class="st0" points="247.5,217.6 239.8,243.8 217.7,243.8 225.4,217.6 	"/>
	<polygon class="st0" points="262.4,165.2 254.7,191.4 232.6,191.4 240.2,165.2 	"/>
	<polygon class="st0" points="218.1,165.2 210.5,191.4 188.3,191.4 196,165.2 	"/>
	<polygon class="st0" points="173.9,165.2 166.3,191.4 144.1,191.4 151.8,165.2 	"/>
	<polygon class="st0" points="129.6,165.2 122,191.4 99.9,191.4 107.5,165.2 	"/>
	<polygon class="st0" points="87.2,165.2 79.6,191.4 57.4,191.4 65.1,165.2 	"/>
	<polygon class="st0" points="40.8,165.2 33.2,191.4 11.1,191.4 18.7,165.2 	"/>
	<polygon class="st0" points="306.6,165.2 299,191.4 276.9,191.4 284.5,165.2 	"/>
	<polygon class="st0" points="350.8,165.2 343.2,191.4 321.1,191.4 328.7,165.2 	"/>
	<polygon class="st0" points="394.7,165.2 387,191.4 364.9,191.4 372.6,165.2 	"/>
	<polygon class="st0" points="439.5,165.2 431.9,191.4 409.8,191.4 417.4,165.2 	"/>
	<polygon class="st0" points="483.8,165.2 476.2,191.4 454,191.4 461.7,165.2 	"/>
	<polygon class="st0" points="528.4,165.2 520.8,191.4 498.7,191.4 506.3,165.2 	"/>
	<polygon class="st0" points="203.2,217.6 195.6,243.8 173.5,243.8 181.1,217.6 	"/>
	<polygon class="st0" points="233,191.4 225.3,217.6 203.2,217.6 210.9,191.4 	"/>
	<polygon class="st0" points="277.2,191.4 269.6,217.6 247.5,217.6 255.1,191.4 	"/>
	<polygon class="st0" points="321.5,191.4 313.8,217.6 291.7,217.6 299.4,191.4 	"/>
	<polygon class="st0" points="365.7,191.4 358.1,217.6 336,217.6 343.6,191.4 	"/>
	<polygon class="st0" points="410,191.4 402.3,217.6 380.2,217.6 387.9,191.4 	"/>
	<polygon class="st0" points="454.4,191.4 446.8,217.6 424.7,217.6 432.3,191.4 	"/>
	<polygon class="st0" points="498.7,191.4 491,217.6 468.9,217.6 476.6,191.4 	"/>
	<polygon class="st0" points="542.9,191.3 535.3,217.5 513.2,217.5 520.8,191.3 	"/>
	<polygon class="st0" points="572.7,165.1 565,191.3 542.9,191.3 550.6,165.1 	"/>
	<polygon class="st0" points="587.5,191.3 579.9,217.5 557.8,217.5 565.4,191.3 	"/>
	<polygon class="st0" points="617.3,165.2 609.7,191.4 587.5,191.4 595.2,165.2 	"/>
	<polygon class="st0" points="631.8,191.3 624.2,217.5 602.1,217.5 609.7,191.3 	"/>
	<polygon class="st0" points="661.6,165.1 653.9,191.3 631.8,191.3 639.5,165.1 	"/>
	<polygon class="st0" points="676.4,191.3 668.8,217.5 646.7,217.5 654.3,191.3 	"/>
	<polygon class="st0" points="691.3,217.5 683.7,243.8 661.6,243.8 669.2,217.5 	"/>
	<polygon class="st0" points="705.6,243.8 698,270 675.9,270 683.5,243.8 	"/>
	<polygon class="st0" points="661.6,243.8 653.9,270 631.8,270 639.5,243.8 	"/>
	<polygon class="st0" points="675.9,270 668.3,296.2 646.2,296.2 653.8,270 	"/>
	<polygon class="st0" points="646.7,217.5 639.1,243.8 616.9,243.8 624.6,217.5 	"/>
	<polygon class="st0" points="706.2,165.1 698.5,191.3 676.4,191.3 684.1,165.1 	"/>
	<polygon class="st0" points="721.1,191.3 713.4,217.5 691.3,217.5 698.9,191.3 	"/>
	<polygon class="st0" points="188.8,191.4 181.1,217.6 159,217.6 166.7,191.4 	"/>
	<polygon class="st0" points="159,217.6 151.4,243.8 129.3,243.8 136.9,217.6 	"/>
	<polygon class="st0" points="114.8,217.6 107.1,243.8 85,243.8 92.7,217.6 	"/>
	<polygon class="st0" points="144.5,191.4 136.9,217.6 114.8,217.6 122.4,191.4 	"/>
	<polygon class="st0" points="100.3,191.4 92.7,217.6 70.6,217.6 78.2,191.4 	"/>
	<polygon class="st0" points="55.7,270 50.7,287.1 28.6,287.1 33.6,270 	"/>
	<polygon class="st0" points="41.2,243.8 33.5,270 11.4,270 19.1,243.8 	"/>
	<polygon class="st0" points="70.6,217.6 62.9,243.8 40.8,243.8 48.5,217.6 	"/>
	<polygon class="st0" points="56,191.4 48.4,217.6 26.3,217.6 33.9,191.4 	"/>
</g>
</svg>
