<?xml version="1.0" encoding="utf-8"?>
<!-- Generator: Adobe Illustrator 24.2.1, SVG Export Plug-In . SVG Version: 6.00 Build 0)  -->
<svg version="1.1" id="Layer_1" xmlns="http://www.w3.org/2000/svg" xmlns:xlink="http://www.w3.org/1999/xlink" x="0px" y="0px"
	 viewBox="0 0 720.9 439.2" style="enable-background:new 0 0 720.9 439.2;" xml:space="preserve">
<style type="text/css">
	.st0{fill:#FFFFFF;}
</style>
<g>
	<g>
		<g>
			<g>
				<path class="st0" d="M0.9,28.4H6c0.7,7.1,5,10.7,12.9,10.7c5.8,0,9.9-2.6,9.9-7.8c0-5.7-5-7.1-12.5-8.7C9,21,2.7,18.9,2.7,11
					c0-6.9,5.7-11,14.2-11c10.5,0,14.8,5.3,15.8,13h-5C27,7.1,23.1,4.1,17,4.1c-5.7,0-9.4,2.4-9.4,6.7c0,4.7,4.7,6.1,10.9,7.4
					c8.1,1.6,15.5,3.6,15.5,13c0,7.8-6.4,12.2-15.4,12.2C7,43.4,1.4,36.9,0.9,28.4z"/>
			</g>
			<g>
				<path class="st0" d="M51.8,0.8h5.9l15.4,41.8h-5.7L63,29.9H46.3l-4.5,12.7h-5.4L51.8,0.8z M47.9,25.6h13.7l-4.8-14
					c-0.8-2.3-1.9-5.9-1.9-5.9h-0.1c0,0-1.1,3.5-1.9,5.9L47.9,25.6z"/>
			</g>
			<g>
				<path class="st0" d="M74.4,28.4h5.1c0.7,7.1,5,10.7,12.9,10.7c5.8,0,9.9-2.6,9.9-7.8c0-5.7-5-7.1-12.5-8.7
					C82.6,21,76.2,18.9,76.2,11c0-6.9,5.7-11,14.2-11c10.5,0,14.8,5.3,15.8,13h-5c-0.8-6-4.6-8.9-10.7-8.9c-5.7,0-9.4,2.4-9.4,6.7
					c0,4.7,4.7,6.1,10.9,7.4c8.1,1.6,15.5,3.6,15.5,13c0,7.8-6.4,12.2-15.4,12.2C80.5,43.4,74.9,36.9,74.4,28.4z"/>
			</g>
			<g>
				<path class="st0" d="M111,28.4h5.1c0.7,7.1,5,10.7,12.9,10.7c5.8,0,9.9-2.6,9.9-7.8c0-5.7-5-7.1-12.5-8.7
					c-7.4-1.6-13.7-3.7-13.7-11.6c0-6.9,5.7-11,14.2-11c10.5,0,14.8,5.3,15.8,13h-5c-0.8-6-4.6-8.9-10.7-8.9c-5.7,0-9.4,2.4-9.4,6.7
					c0,4.7,4.7,6.1,10.9,7.4c8.1,1.6,15.5,3.6,15.5,13c0,7.8-6.4,12.2-15.4,12.2C117.1,43.4,111.5,36.9,111,28.4z"/>
			</g>
			<g>
				<path class="st0" d="M159.7,24.9L144.5,0.8h5.8l12,19.9h0.1l12.2-19.9h5.6L164.9,25v17.6h-5.3V24.9z"/>
			</g>
		</g>
		<g>
			<g>
				<path class="st0" d="M619.7,22.5c0-13,6.1-20.9,15.6-20.9s15.5,7.8,15.5,20.9c0,12.7-5.5,20.9-15.5,20.9
					C625.3,43.5,619.7,35.3,619.7,22.5z M645.7,22.5c0-10.2-3.4-16.7-10.4-16.7c-7.1,0-10.5,6.4-10.5,16.7
					c0,10.2,3.4,16.6,10.5,16.6C642.4,39.2,645.7,32.9,645.7,22.5z"/>
			</g>
			<g>
				<path class="st0" d="M655.9,22.5c0-13,6.1-20.9,15.6-20.9c9.5,0,15.5,7.8,15.5,20.9c0,12.7-5.5,20.9-15.5,20.9
					C661.6,43.5,655.9,35.3,655.9,22.5z M681.9,22.5c0-10.2-3.4-16.7-10.4-16.7c-7.1,0-10.5,6.4-10.5,16.7
					c0,10.2,3.4,16.6,10.5,16.6C678.6,39.2,681.9,32.9,681.9,22.5z"/>
			</g>
			<g>
				<path class="st0" d="M692,31.7h5c0.4,4.4,3.4,7.6,8.8,7.6c3,0,5.2-0.9,6.8-2.6c2.4-2.6,3.3-7.1,3.6-13h-0.1
					c-2.6,3.2-6.3,5.1-11,5.1c-7.4,0-13.3-6.1-13.3-13.4c-0.1-7.5,5.9-13.7,14-13.7c3.9,0,7,1.2,9.2,3c4.6,3.5,6,9.2,6,18.2
					c0,8.1-1.6,14-5.6,17.5c-2.4,2.1-5.6,3.2-9.4,3.2C698,43.5,692.3,38.8,692,31.7z M715.4,15.1c0-5.7-4.4-9.5-9.8-9.5
					c-5.5,0-9.5,3.9-9.5,9.5s4.2,9.6,9.4,9.6C711.6,24.7,715.4,20.8,715.4,15.1z"/>
			</g>
		</g>
	</g>
	<g>
		<g>
			<g>
				<path class="st0" d="M0.9,424.2H6c0.7,7.1,5,10.7,12.9,10.7c5.8,0,9.9-2.6,9.9-7.8c0-5.7-5-7.1-12.5-8.7
					c-7.4-1.6-13.7-3.7-13.7-11.6c0-6.9,5.7-11,14.2-11c10.5,0,14.8,5.3,15.8,13h-5c-0.8-6-4.6-8.9-10.7-8.9c-5.7,0-9.4,2.4-9.4,6.7
					c0,4.7,4.7,6.1,10.9,7.4c8.1,1.6,15.5,3.6,15.5,13c0,7.8-6.4,12.2-15.4,12.2C7,439.1,1.4,432.6,0.9,424.2z"/>
			</g>
			<g>
				<path class="st0" d="M51.8,396.6h5.9l15.4,41.8h-5.7L63,425.6H46.3l-4.5,12.7h-5.4L51.8,396.6z M47.9,421.3h13.7l-4.8-14
					c-0.8-2.3-1.9-5.9-1.9-5.9h-0.1c0,0-1.1,3.5-1.9,5.9L47.9,421.3z"/>
			</g>
			<g>
				<path class="st0" d="M74.4,424.2h5.1c0.7,7.1,5,10.7,12.9,10.7c5.8,0,9.9-2.6,9.9-7.8c0-5.7-5-7.1-12.5-8.7
					c-7.4-1.6-13.7-3.7-13.7-11.6c0-6.9,5.7-11,14.2-11c10.5,0,14.8,5.3,15.8,13h-5c-0.8-6-4.6-8.9-10.7-8.9c-5.7,0-9.4,2.4-9.4,6.7
					c0,4.7,4.7,6.1,10.9,7.4c8.1,1.6,15.5,3.6,15.5,13c0,7.8-6.4,12.2-15.4,12.2C80.5,439.1,74.9,432.6,74.4,424.2z"/>
			</g>
			<g>
				<path class="st0" d="M111,424.2h5.1c0.7,7.1,5,10.7,12.9,10.7c5.8,0,9.9-2.6,9.9-7.8c0-5.7-5-7.1-12.5-8.7
					c-7.4-1.6-13.7-3.7-13.7-11.6c0-6.9,5.7-11,14.2-11c10.5,0,14.8,5.3,15.8,13h-5c-0.8-6-4.6-8.9-10.7-8.9c-5.7,0-9.4,2.4-9.4,6.7
					c0,4.7,4.7,6.1,10.9,7.4c8.1,1.6,15.5,3.6,15.5,13c0,7.8-6.4,12.2-15.4,12.2C117.1,439.1,111.5,432.6,111,424.2z"/>
			</g>
			<g>
				<path class="st0" d="M159.7,420.6l-15.1-24.1h5.8l12,19.9h0.1l12.2-19.9h5.6l-15.3,24.2v17.6h-5.3V420.6z"/>
			</g>
		</g>
		<g>
			<g>
				<path class="st0" d="M619.7,418.3c0-13,6.1-20.9,15.6-20.9s15.5,7.8,15.5,20.9c0,12.7-5.5,20.9-15.5,20.9
					C625.3,439.2,619.7,431,619.7,418.3z M645.7,418.3c0-10.2-3.4-16.7-10.4-16.7c-7.1,0-10.5,6.4-10.5,16.7
					c0,10.2,3.4,16.6,10.5,16.6C642.4,434.9,645.7,428.6,645.7,418.3z"/>
			</g>
			<g>
				<path class="st0" d="M655.9,418.3c0-13,6.1-20.9,15.6-20.9c9.5,0,15.5,7.8,15.5,20.9c0,12.7-5.5,20.9-15.5,20.9
					C661.6,439.2,655.9,431,655.9,418.3z M681.9,418.3c0-10.2-3.4-16.7-10.4-16.7c-7.1,0-10.5,6.4-10.5,16.7
					c0,10.2,3.4,16.6,10.5,16.6C678.6,434.9,681.9,428.6,681.9,418.3z"/>
			</g>
			<g>
				<path class="st0" d="M692,427.5h5c0.4,4.4,3.4,7.6,8.8,7.6c3,0,5.2-0.9,6.8-2.6c2.4-2.6,3.3-7.1,3.6-13h-0.1
					c-2.6,3.2-6.3,5.1-11,5.1c-7.4,0-13.3-6.1-13.3-13.4c-0.1-7.5,5.9-13.7,14-13.7c3.9,0,7,1.2,9.2,3c4.6,3.5,6,9.2,6,18.2
					c0,8.1-1.6,14-5.6,17.5c-2.4,2.1-5.6,3.2-9.4,3.2C698,439.2,692.3,434.5,692,427.5z M715.4,410.9c0-5.7-4.4-9.5-9.8-9.5
					c-5.5,0-9.5,3.9-9.5,9.5s4.2,9.6,9.4,9.6C711.6,420.5,715.4,416.5,715.4,410.9z"/>
			</g>
		</g>
	</g>
	<g>
		<path class="st0" d="M470.6,75.4c12.6,0,22.8,10.2,22.8,22.8c0,12.6-10.2,22.8-22.8,22.8s-22.8-10.2-22.8-22.8
			C447.8,85.6,458,75.4,470.6,75.4 M470.6,72.4c-14.2,0-25.8,11.6-25.8,25.8s11.6,25.8,25.8,25.8c14.2,0,25.8-11.6,25.8-25.8
			S484.8,72.4,470.6,72.4L470.6,72.4z"/>
		<g>
			<circle class="st0" cx="470.6" cy="98.2" r="11.3"/>
		</g>
	</g>
	<g>
		<g>
			<path class="st0" d="M247.9,126.2l-1.3-2.6c-5-9.6-11-15-15.9-19.3c-5.9-5.3-10.6-9.5-10.6-18.1c0-6,4.6-14.5,15-14.5
				c6,0,10,2.2,12.8,7.2c2.8-4.9,6.9-7.2,12.8-7.2c10.3,0,15,8.5,15,14.5c0,8.6-4.7,12.8-10.6,18.1c-4.8,4.3-10.8,9.7-15.9,19.3
				L247.9,126.2z M235.1,74.8c-8.2,0-11.9,6.7-11.9,11.5c0,7.2,4,10.8,9.6,15.8c4.6,4.1,10.2,9.1,15.2,17.7
				c5-8.6,10.6-13.6,15.2-17.7c5.6-5,9.6-8.6,9.6-15.8c0-4.8-3.7-11.5-11.9-11.5c-5.8,0-9.1,2.4-11.4,8.2l-1.4,3.5l-1.4-3.5
				C244.2,77.2,240.9,74.8,235.1,74.8z"/>
		</g>
	</g>
	<g>
		<g>
			<path class="st0" d="M172.5,186.1c-1.2-0.6-3.5-1.2-6.9-1.7c0,0,0,0,0,0c-5.5-0.6-13.8-1.2-25.1-1.4c0,0-0.1,0,0-0.1
				c0.3-0.3,0.6-1.2,1.1-2.8c3.8-10.7,8.1-19.1,12.7-24.9c0,0,0,0,0,0c2.3-2.6,3.5-4,4-4l-0.3,2.3c-0.3,4-0.6,6.7-0.3,7.5
				c0.3,1.2,0.9,1.7,1.4,2c0.6,0.3,1.4,0.3,2,0c0,0,0,0,0,0c0.3-0.3,0.9-2.6,1.2-6.9c0.3-4.9,0.3-7.5-0.6-8.4c0,0,0,0,0,0
				c-1.4-1.2-2.9-1.4-4.6-0.6c-2.3,0.9-4.6,3.5-7.2,7.5c-4.3,6.4-8.1,15-11.6,25.7c0,0,0,0,0,0c-0.6,1.2-0.9,2-0.9,2.3
				c0,0.3-0.3,0.3-0.3,0.3h-19.4c0,0,0,0,0,0c-4.6,0.3-7.2,0.3-8.1,0.3h-0.9c0-0.3,0.3-0.9,0.3-1.5c0-0.3,0.9-3.2,2-9
				c1.5-7.5,2.6-12.4,2.9-14.2c0.3-1.7,0.3-3.2,0-3.8c0-0.9-0.6-1.5-1.4-1.7c-0.9-0.3-1.5-0.3-2,0.3c-0.6,0.6-1.5,2.3-2.3,5.5
				c-2.9,9-4,15.3-3.8,18.8c0,0.9,0.3,1.7,0.6,2.3c0.6,0.6,0.6,1.2,0.6,1.7c-0.3,0.6-0.3,1.2-0.6,1.2c-0.3,0.3-1.2,0.3-2.9,0.3
				c-4.6,0-10.4,0.3-17.9,0.6c-17.6,0.9-33.6,2-47.4,3.8c-13,1.6-25.3,3.5-36.8,6.1c0,0,0,0,0,0l0,0.9c0,0.9,0.8,1.5,1.6,1.3
				c11.2-2.6,23.3-4.8,36.4-6.4c14.5-1.7,30.9-3.2,49.2-4.3c11.2-0.6,17.3-0.6,17.9-0.6c0,0,0,0,0,0.1l-0.6,2.8
				c-0.3,1.4-1.5,8.1-3.5,19.7c-1.4,9-3.2,17.9-4.9,27.2c-0.9,4.9-2,10.1-3.2,15c-0.3,1.5-0.6,2.3-0.6,2.3s-0.3,0-0.3-0.6
				c-0.3-0.3-0.3-0.9-0.6-1.5c-3.8-15.6-19.7-26.3-48.3-32.4c-8.7-1.7-20.5-3.5-36.2-5.2c-2.2-0.2-4.2-0.4-6.1-0.6
				c-0.5-0.1-0.9,0.3-0.9,0.8h0c0,0.4,0.3,0.8,0.8,0.8c0.4,0,0.7,0.1,1.1,0.1c12.1,1.2,21.1,2.3,27.5,3.5
				c22.3,3.8,38.5,9.5,48.3,17.4c5.8,4.3,9.3,9.8,11,16.2c1.5,5.2,1.5,10.7,0,16.2c-0.6,2.9-0.9,4.6-0.9,5.5
				c0.3,0.9,0.9,1.5,1.5,1.5c0.9,0.3,1.4,0,2.3-0.6c0,0,0,0,0,0c0.3-0.6,0.6-2.3,1.1-4.9c0.9-4,2.3-10.1,4.1-18.5
				c1.4-6.1,2.6-11,3.2-14.5c0.3-1.4,0.9-4.9,2-10.4c0.9-5.5,2-10.7,2.9-15.3c2.9-15.5,4.3-23.6,4.6-24c0,0,0,0,0,0
				c0.2,0,4.8-0.3,13.9-0.3h13.8c0,0,0.1,0,0,0.1c-0.1,0.2-0.3,1.4-0.9,3.4c-1.7,6.4-3.2,13-4.6,20.3c-1.7,8.1-2.6,14.5-3.2,19.4
				c-1.2,8.1-1.4,15.3-1.2,21.1c0.3,3.8,1.4,5.8,3.8,5.8c0.9,0,2-1.2,3.2-2.9c1.2-1.7,1.2-3.2,0.3-3.8c-1.2-1.2-2.3-0.9-3.2,0.9
				l-0.6,0.6c0-0.3,0-1.7-0.3-4.9c-0.3-3.2-0.3-5.5-0.3-7.8c0-5.2,0.6-10.7,1.4-16.8c0.9-6.1,2.3-13,4-20.5c2-8.4,3.5-13.3,4.1-14.7
				c0,0,0,0,0,0c0.6-0.3,4.7,0,12.7,0.6c7.8,0.6,12.7,1.2,14.2,1.4c0.9,0,1.5,0.3,2,0.3c0,0-0.3,0-0.6,0.3c-0.9,0.3-1.2,0.6-1.2,1.2
				c0,0.6,0.6,0.9,1.2,1.4c0,0,0,0,0,0c0.6,0.3,1.4,0.3,2,0.3c0.6,0,1.4-0.3,2.3-0.9c0.9-0.3,1.4-0.9,1.4-1.2
				C174.2,187.5,174,186.7,172.5,186.1z"/>
		</g>
		<g>
			<path class="st0" d="M195.9,210.1c-0.6-0.3-0.9,0-1.5,0.6c-0.6,0.7-1.3,1.5-2.1,2.2c-1.7,1.6-3.7,3.2-6.3,5
				c-3.8,2.6-6.9,4.6-9.8,5.8c-2.9,1.4-5.5,2-7.8,2c-1.2,0-2.3-0.3-3.2-0.6c-1.4-0.6-2.6-1.2-3.2-2.3c-0.9-1.4-1.2-3.2-1.2-5.5
				c0-2,0.3-3.5,1.2-4.3c0.9,0.6,1.7,0.9,3.2,0.9c2,0,4.6-1.2,7.5-3.2c2.9-2,5.8-4.6,8.1-7.5c0.6-0.6,1.2-1.4,1.7-2.3
				c1.5-2.3,2.3-4.3,2.3-6.1c0-2-0.6-3.2-2-4c-0.6-0.3-1.4-0.6-2.6-0.6c-3.2,0-6.9,2-10.7,5.5c-2.9,2.6-5.2,5.8-6.9,9.3
				c-2,3.8-3.2,7.2-3.8,10.7c-0.3,3.5,0,6.4,1.2,8.4c1.5,2.6,3.8,4.3,7.2,4.6h3.5c2-0.3,4.3-1.2,7.2-2.3c5.8-2.8,11.3-6.6,16.3-11.7
				c0.2-0.2,0.5-0.5,0.7-0.8c0.6-0.6,0.9-0.9,1.4-1.5c0.3-0.6,0.3-1.2,0.3-1.4C196.5,210.4,196.5,210.1,195.9,210.1z M163.5,207.5
				c2-4,4.3-7.2,6.9-10.1c2-2,4-3.5,6.4-4.3c2.3-0.9,3.8-0.9,4.6-0.3c0.9,0.6,0.9,1.5,0.6,2.9c-0.6,1.7-1.7,3.5-3.5,5.8
				c-2,2.3-3.8,4-5.5,5.2c-1.7,1.7-3.8,2.6-5.8,2.9c-0.9,0.3-1.7,0.3-2.3,0c-0.6-0.3-1.2-0.3-1.7-0.3H163
				C163,209.2,163,208.7,163.5,207.5z"/>
		</g>
		<g>
			<path class="st0" d="M221.1,209.8c-0.1,0-0.3,0.1-0.6,0.2c-0.3,0.1-0.6,0.4-0.9,0.7c-0.6,0.6-1.4,1.4-2.3,2.6
				c-1.5,1.7-3.5,4.3-6.1,7.8c-1.5,2-3.5,4.6-5.8,8.1c2.3-5.2,3.5-8.1,3.8-9.8c0-3.8-1.7-6.4-4.6-8.1c-0.6-0.3-1.7-0.9-3.8-1.4
				c0-0.3,0.3-0.3,0.3-0.6c0.6-0.3,0.9-0.9,1.5-1.4c5.2-5.8,7.2-9.8,6.1-11.9c-0.9-1.7-2.9-1.7-5.8,0c-1.7,1.2-3.8,2.6-5.8,4.6
				c-2,2-3.2,3.8-3.8,5.2c-0.6,1.4-0.3,2.6,0.6,3.8l-0.3,0.6l-0.3,0.3c-1,0.8-1.3,1.7-1,2.5c0.1,0.3,0.4,0.7,0.7,1
				c0.4,0.4,0.8,0.7,1.3,0.8c0.9,0.2,1.8-0.2,2.8-1.3l0.9-0.6c0.3,0,0.9,0.3,2,0.6c1.2,0.3,2,0.3,2.3,0.6c0.3,0,0.9,0.3,1.5,0.9
				c0.6,0.6,1.2,1.2,1.4,2c0.9,1.2,1.2,2.9,0.6,4.9c-0.3,1.7-1.7,4.6-3.8,8.7c-0.3,0.3-0.3,0.6-0.6,1.2c-1.2,2-1.7,3.5-2,4.3
				c-0.9,2-0.6,3.2,0.3,3.5c1.2,0.3,2-0.3,3.2-2c1.7-3.2,4-6.4,6.9-10.1c3.5-4.9,6.6-8.8,9.3-11.9c0.2-0.2,0.3-0.4,0.5-0.6
				c1.2-1.5,2-2.6,2.3-2.9C222.3,211,222,210.4,221.1,209.8z M197.7,207.5c-0.6,0.3-0.9,0.6-0.9,0.6l-0.3-0.3
				c-0.6,0-0.6-0.6-0.3-1.5c0.3-0.9,1.5-2.3,3.2-3.8c1.7-1.5,3.5-2.9,4.9-3.8c0.6,0,0.9-0.3,1.2-0.6c0,0.3-0.3,0.9-0.9,1.7
				C202.9,202.9,200.6,205.5,197.7,207.5z"/>
		</g>
		<g>
			<path class="st0" d="M256.1,210.1c-0.6-0.3-0.9,0-1.4,0.6c-2,2.3-4.6,4.6-8.4,7.2c-3.8,2.6-6.9,4.6-9.8,5.8c-2.9,1.4-5.5,2-7.8,2
				c-1.2,0-2.3-0.3-3.2-0.6c-1.5-0.6-2.6-1.2-3.2-2.3c-0.9-1.4-1.2-3.2-1.2-5.5c0-2,0.3-3.5,1.2-4.3c0.9,0.6,1.7,0.9,3.2,0.9
				c2,0,4.6-1.2,7.5-3.2c2.9-2,5.8-4.6,8.1-7.5c0.6-0.6,1.2-1.4,1.7-2.3c1.4-2.3,2.3-4.3,2.3-6.1c0-2-0.6-3.2-2-4
				c-0.6-0.3-1.4-0.6-2.6-0.6c-3.2,0-6.9,2-10.7,5.5c-2.9,2.6-5.2,5.8-7,9.3c-0.9,1.8-1.7,3.4-2.3,5.1c-0.7,1.8-1.1,3.5-1.4,5.3
				c0,0.1,0,0.2-0.1,0.3c-0.3,3.5,0,6.4,1.2,8.4c1.4,2.6,3.8,4.3,7.2,4.6h3.5c2-0.3,4.3-1.2,7.2-2.3c6.1-2.9,11.9-6.9,17.1-12.4
				l1.5-1.5c0.3-0.6,0.3-1.2,0.3-1.4C256.7,210.4,256.7,210.1,256.1,210.1z M223.7,207.5c2-4,4.3-7.2,6.9-9.8c2-2,4-3.5,6.4-4.3
				c2.3-0.9,3.8-1.2,4.6-0.6c0.9,0.6,0.9,1.5,0.6,2.9c-0.6,1.7-1.7,3.5-3.5,5.8c-2,2.3-3.8,4-5.5,5.2c-1.7,1.7-3.8,2.6-5.8,2.9
				c-0.9,0.3-1.7,0.3-2.3,0c-0.6-0.3-1.2-0.3-1.7-0.3h-0.3C223.1,209.2,223.1,208.7,223.7,207.5z"/>
		</g>
		<g>
			<path class="st0" d="M305.9,263c-5.8-1.2-9.8-3.2-12.4-6.4c-3.8-4.6-4.3-10.1-2-16.8c2-4.9,5.8-10.7,11-17.4
				c7.8-9.3,18.5-19.7,32.7-31c16.5-13.3,32.7-24.3,48.3-32.7c12.7-6.9,22.6-10.4,29.5-11c2.9-0.3,4.9,0,6.7,0.6
				c4.6,1.7,6.4,6.1,4.9,13c-0.9,3.8-3.8,11.6-8.7,23.1c-2.3,5.5-3.2,8.1-3.2,8.1s0.3-0.6,1.2-1.4c0.6-1.2,1.4-2.3,2.6-4
				c1.2-1.7,2-3.2,2.9-4.3c1.7-2.6,3.5-5.5,5.5-9c1.2-2,2.6-4.3,4.1-7.2c0.6-1.4,1.2-2.3,1.7-2.6c0.3-0.3,0.9-0.6,1.7-0.3
				c0.6,0,1.2,0.3,1.4,0.6c0.6,0.9,0.9,1.7,0.9,2.6c0,0.9-0.3,1.7-0.9,2c-0.6,0.3-0.9,0.6-1.2,0.3c-0.3,0-0.3,0-0.6,0.3
				c-0.3,0.3-1.4,2.3-3.5,5.2c-5.5,9.3-10.7,17.1-15.6,23.7c-2.6,3.5-4.3,5.2-5.2,4.9c-1.2,0-2-0.9-2-2c0-1.2,2-6.9,6.4-17.4
				c4.1-9.5,6.4-15.9,7.5-19.4c1.2-3.5,1.4-6.1,1.4-8.4c-0.3-3.8-2.6-5.5-7.5-4.9c-6.9,0.3-17.1,4.3-31,11.9
				c-15.9,8.7-32.1,19.7-48.3,32.7c-12.1,9.8-21.4,18.8-28.3,27.2c-8.7,10.4-13,18.5-12.7,24.6c0.3,6.4,4.6,10.4,13.3,12.1
				c6.7,1.4,16.5,1.4,29.8,0.3c13-1.2,26.9-3.5,41.1-6.9c29.5-6.9,58.4-16.8,87.4-29.5c13.9-6.1,22-10.1,23.7-11.6
				c0.6-0.6,1.4-0.9,2.3-1.2c0.9-0.3,1.4,0,1.7,1.2c0,0.9-0.9,1.7-2,2.6c-1.2,0.9-4,2.3-8.1,4.3c-20.2,9.5-42.2,18.2-66.2,26
				c-20,6.7-38.5,11.6-55.5,14.8c-11.3,2-22,3.5-31.8,4C318.6,264.2,311.1,264.2,305.9,263z"/>
		</g>
		<g>
			<path class="st0" d="M520.5,211c-0.1-0.1-0.2-0.1-0.4-0.1c-0.5-0.1-0.9,0-1.4,0.4c-1.2,0.9-2.3,1.7-3.8,2.6
				c-2.3,1.7-4.9,2.9-7.2,3.8l0.3-0.9c2.6-6.4,4-11.9,4-16.5c0-4.9-1.2-8.1-3.8-9.8c-2-1.5-4.6-1.5-7.5-0.3
				c-2.3,1.2-4.6,2.9-6.4,5.8c-1.7,2.9-3.2,5.8-3.8,8.7c-0.3,1.5-0.6,3.2-0.6,4.6v0.3c0,0.6,0,1.1,0.1,1.6c0.1,1.2,0.3,2.3,0.6,3.3
				c0.8,2.4,2.1,4.2,3.9,5.2v1.7c0.3,2.9,0.6,4.9,1.2,6.1c0.6,1.2,1.4,1.7,2.3,2c1.2,0.3,2.6-0.3,4-2c0.6-0.9,1.5-2,2.3-3.8
				c0.6-1.2,1.2-2,1.4-2.9c0.3-0.6,0.6-1.2,0.6-1.2s0.3-0.3,0.6-0.3c1.2-0.3,2.3-0.9,3.8-1.4c1.5-0.6,2.9-1.4,4.6-2.3
				c1.5-0.6,2.6-1.5,3.8-2c0.6,0,0.9-0.3,1.2-0.6l0.3-0.3C521.1,211.8,521.1,211.3,520.5,211z M500.5,227.2c-0.9,0.6-1.5,0.6-2-0.3
				c0-0.6-0.3-1.7-0.6-3.2c-0.3-1.5-0.3-2.6-0.3-3.2c2,0.6,4.6,0.3,7.5-0.3C503.4,224,502,226,500.5,227.2z M506.6,216.2
				c0,0.6-0.3,1.2-0.6,1.7c-3.5,1.2-6.1,1.4-8.4,0.9c0,0,0-0.3,0-0.9c0.3-0.3,0.3-1.2,0.3-2.3c0.3-1.5,0.9-3.5,1.5-6.4
				c0.3-1.4,0.6-2.9,0.9-4c0.3-1.4,0.6-2.3,0.9-2.9c0.6-2,0.3-3.2-0.6-3.8c-0.9-0.3-1.7-0.3-2.3,0c-0.6,0.6-1.2,1.2-1.4,2
				c-0.3,0.9-0.6,2.6-0.9,4.9c-0.3,2.3-0.6,4.9-0.6,7.5c-0.3,0.9-0.3,1.7-0.3,2.3l-0.3,2c-0.6-0.6-1.2-1.2-1.5-1.7
				c-0.5-0.8-0.8-1.8-1-2.9c-0.1-0.4-0.1-0.8-0.1-1.3c-0.1-1.2,0-2.5,0.3-3.9c0-0.9,0.3-1.7,0.6-2.9c0.9-2.6,2-4.9,3.8-7.5
				c1.7-2.6,3.5-4.3,5.8-5.2c1.7-0.6,3.2-0.6,4.6,0.3c2.9,1.7,3.8,6.7,2.3,14.5C508.9,209.8,507.8,213,506.6,216.2z"/>
		</g>
		<g>
			<path class="st0" d="M567.1,211c-0.3-0.3-0.3-0.6-0.6-0.6c-0.2-0.1-0.5-0.1-0.7,0c-0.6,0.1-1.2,0.8-1.6,2.1
				c-0.9,3.2-2.9,7-5.5,11.6c-2.9,4.6-5.2,7.8-7.2,9.8c-2.6,2.3-4.6,2-5.5-1.2c-0.6-1.7-0.6-4.3-0.6-7.5c0-2.9,0.3-6.4,0.9-9.8
				c0.3-0.9,0.6-1.7,0.6-2.3c0.6-1.7,1.2-4.3,2-7.5c0.6-2.9,1.2-5.2,1.4-6.4c0.3-1.5,0.3-2.3,0-2.9c-0.3-0.6-0.9-1.2-1.7-1.2
				c-0.9,0-1.5,0.3-2,0.9c-0.6,0.6-1.2,1.7-2.3,3.5c-0.9,1.7-2,3.8-3.2,5.8c-0.7,1.7-1.5,3.2-2,4.3c0.6-2.3,0.9-4,1.2-5.5
				c0.3-1.5,0.6-2.6,0.6-3.8c0.3-2-0.3-3.2-1.2-3.8c-1.2-0.6-2-0.6-2.9,0.3c-0.6,0.6-1.5,1.7-2.6,4.1c-0.9,1.4-1.5,2.9-2,4
				c-1.5,3.5-3.2,8.4-5.5,15c-1.2,3.8-2,6.4-2.3,7.2V226c0.3-1.4,0.3-2.9,0.6-4.6v-1.2c0.6-2.9,0.9-5.2,1.2-7.2
				c0.6-2.9,1.4-6.1,2.3-9.8c0.9-3.2,1.2-5.2,1.4-6.4c0-1.4,0-2.3-0.3-2.9c-0.6-0.9-1.2-1.2-2.3-0.9c-1.7,0.6-3.8,4.3-5.8,11.3
				c-0.7,2.9-1.2,5.1-1.2,6.5c0,0.4,0,0.7,0.1,1c0,0.4,0.1,0.8,0.3,1.1c0.2,0.4,0.6,0.8,1.1,0.9c0.9,0.6,1.7,0.6,2.6,0v0.9
				c0,0.6,0,0.9,0,0.9c0,1.4-0.3,2.9-0.6,4.3c-0.3,1.7-0.3,3.5-0.6,4.6c-0.3,2-0.3,3.2-0.3,4c0,1.2,0.3,1.7,0.9,2
				c0.3,0.3,0.6,0.3,0.9,0.3c0.6,0,1.5-0.9,2.3-2.6c0.3-0.6,0.6-1.7,1.2-3.2c0.6-1.4,1.4-3.2,2-5.5c2.3-7.2,4.6-12.7,6.4-15.9
				c0.6-1.2,0.9-2,1.5-2.6c0,0,0,0.3,0,0.6c-0.3,0.9-0.3,2-0.6,3.2c0,0.6-0.3,0.9-0.3,1.4c-0.3,1.7-0.9,4.6-1.7,9
				c-0.9,3.8-1.4,6.1-1.4,6.9v2.3c0.3,0.9,0.9,1.2,1.4,1.2s1.2-0.6,1.5-1.2c0,0,0.3-0.6,0.6-1.5c0.3-0.9,0.6-2,1.2-3.2
				c1.2-3.2,2.3-5.8,3.2-7.8c0.6-1.7,1.5-3.5,2.6-5.5c0.9-1.5,1.5-2.6,2-3.8c0.1,0,0.1,0,0.2-0.1c-0.2,0.4-0.2,0.7-0.2,0.9
				c-0.3,1.4-0.6,2.9-0.9,4.6c-0.6,3.2-1.2,5.5-1.2,6.7c-1.2,9.8-1.2,16.2,0.6,19.7c0.6,1.2,1.2,1.7,2.3,2.3c0.9,0.3,2,0.3,3.2-0.3
				c2-0.9,4.6-3.8,7.8-8.4c2.5-4.1,4.6-7.7,6.3-10.8c0.2-0.4,0.5-0.9,0.7-1.3c0.3,0,0.6-0.6,0.9-1.4c0.3-0.9,0.6-1.5,0.9-2
				C567.4,211.8,567.4,211.3,567.1,211z M526,200.6c0-0.2,0.2-0.5,0.2-0.7c-0.3,1.4-0.5,2.8-0.5,4.2c-0.6,2-0.9,4.3-1.2,6.7
				C524,208.4,524.3,204.9,526,200.6z"/>
		</g>
		<g>
			<path class="st0" d="M602.2,210.6c-0.2-0.3-0.3-0.5-0.7-0.5c-0.6-0.3-0.9,0-1.5,0.6c-0.6,0.6-1.1,1.3-1.8,1.9
				c-1.7,1.7-3.9,3.4-6.6,5.4c-3.8,2.6-6.9,4.6-9.8,5.8c-2.9,1.4-5.5,2-7.8,2c-1.2,0-2.3-0.3-3.2-0.6c-1.4-0.6-2.6-1.2-3.2-2.3
				c-0.9-1.4-1.2-3.2-1.2-5.5c0-2,0.3-3.5,1.2-4.3c0.9,0.6,1.7,0.9,3.2,0.9c2,0,4.6-1.2,7.5-3.2c2.9-2,5.8-4.6,8.1-7.5
				c0.6-0.6,1.2-1.4,1.7-2.3c1.4-2.3,2.3-4.3,2.3-6.1c0-2-0.6-3.2-2-4c-0.6-0.3-1.4-0.6-2.6-0.6c-3.2,0-6.9,2-10.7,5.5
				c-2.9,2.6-5.2,5.8-6.9,9.3c-1,1.9-1.8,3.7-2.4,5.5c-0.6,1.8-1,3.5-1.3,5.3c-0.1,0.7-0.1,1.3-0.1,1.9c-0.1,2.6,0.3,4.9,1.2,6.5
				c1.4,2.6,3.8,4.3,7.2,4.6h3.5c2-0.3,4.3-1.2,7.2-2.3c4.9-2.4,9.7-5.5,14.1-9.5c1-0.9,2-1.9,3-3c0,0,0,0,0,0
				c0.6-0.6,0.9-0.9,1.4-1.4c0.3-0.6,0.3-1.2,0.3-1.4C602.3,210.8,602.2,210.7,602.2,210.6z M569.1,207.5c2-4,4.3-7.2,7-9.8
				c2-2,4-3.5,6.4-4.3c2.3-0.9,3.8-1.2,4.6-0.6c0.9,0.6,0.9,1.5,0.6,2.9c-0.6,1.7-1.7,3.5-3.5,5.8c-2,2.3-3.8,4-5.5,5.2
				c-1.7,1.7-3.8,2.6-5.8,2.9c-0.9,0.3-1.7,0.3-2.3,0c-0.6-0.3-1.2-0.3-1.7-0.3h-0.3C568.5,209.2,568.5,208.7,569.1,207.5z"/>
		</g>
		<g>
			<path class="st0" d="M624.1,211.8c-0.3-1.2-0.9-1.2-1.5-0.3c-3.2,3.5-5.8,6.4-8.1,9.3c-0.3,0-0.3,0.3-0.6,0.6
				c0,0.3-0.3,0.6-0.6,0.9c0,0.3-0.3,0.6-0.6,0.9c0,0-0.6-0.3-1.2-0.3c-0.9-0.3-2.6-0.9-4.9-1.4c-3.2-0.9-5.2-1.7-6.1-2.6
				c-0.8-1.1-0.8-2.7,0-4.9c0.4-1,0.9-2,1.6-3.2c0.1-0.3,0.3-0.5,0.5-0.8c0.9-1.7,2.3-3.5,4-5.8c1.4-1.7,2.9-3.2,4-4.3
				c1.5-1.4,2.6-2.3,3.2-2.6l0.6-0.3c-0.3,0.3-0.3,0.9-0.6,1.4c-0.9,2.6-0.6,4,1.2,4.6c1.2,0.3,2,0,2.6-0.9c0.9-0.9,1.5-2.3,1.5-4.6
				c0.3-1.4,0-2.9-0.9-3.8c-0.6-0.9-1.7-1.4-3.2-1.2c-3.5,0.6-7.5,4.6-12.7,12.1c-2,3-3.3,5.7-4.1,8c-0.5,1.6-0.8,3.1-0.6,4.3
				c0.1,0.8,0.3,1.6,0.7,2.2c0.6,1.2,1.7,2,2.9,2.6c0.3,0.3,0.9,0.3,1.7,0.6c0.9,0.3,1.7,0.6,2.9,0.9c0.3,0,0.3,0,0.6,0
				c3.2,0.6,4.9,1.2,4.6,2.3l-0.6,0.9c-0.3,0.6-0.9,1.2-1.5,2c-2.3,3.2-4.3,6.1-6.1,8.7c-1.7,2.9-2.6,4.9-2.9,6.1
				c-0.6,1.4-0.3,2.6,0.6,3.2c0.3,0.3,1.2,0.3,2,0.3c0.9-0.3,2-0.6,3.2-1.2c2-1.2,4-2.6,6.4-4.6c2.3-1.7,3.8-3.8,4.9-5.8
				c2.3-4.3,1.7-7.8-2.3-10.4l-0.9-0.6l3.2-3.5c2.6-2.9,4.9-5.5,6.6-7.5C624.3,212.7,624.3,212.1,624.1,211.8z M616.8,228.3
				c0.9,1.4,0.3,3.2-1.2,5.5c-2.6,4-6.1,7.2-10.1,9.3c-1.2,0.6-1.7,0.9-2,0.6c-0.3,0-0.3-0.3-0.3-0.9c1.4-4.3,3.8-8.7,7.5-13.3
				c0.6-0.9,1.5-2,2.3-3.2c0.3-0.3,0.6-0.6,0.9-0.6C615.1,226.3,615.9,227.2,616.8,228.3z"/>
		</g>
		<g>
			<path class="st0" d="M320.6,277.2l-0.3-0.3c-0.6-0.6-1.5-0.9-3.2-1.2c-1.2-0.3-4.6-0.6-10.1-1.2c-17.5-1.7-32.4-2.6-44.5-3.2
				c-0.1,0-0.2,0-0.4,0c-0.6,0-1.2,0-1.9-0.1c-1.7,0-3.5-0.1-5.3-0.1c-1.2,0-2.5,0-3.8-0.1c-5.5-0.1-11.4-0.1-17.6-0.1
				c-0.9,0-2.3-0.3-4-0.3h-2.3l0.3-1.2c0.3-0.9,0.6-1.5,0.6-2c0.9-3.2,1.4-5.2,1.2-6.1c-0.3-1.2-0.9-1.7-1.7-2c-1.2-0.3-2,0-2.6,0.6
				c-0.3,0.6-0.6,1.5-0.6,2c-0.3,3.2-0.9,6.1-1.7,9c-0.9,0-2,0-3.8-0.3c-20.5,0.3-44.8,1.5-73.5,3.2c-3.5,0.3-6.4,0.6-9.3,0.6
				c-2.9,0.3-4.6,0.3-5.2,0.3c-1.7,0.3-2.9,0.3-3.2,0.6c-0.9,0.6-0.9,1.2-0.3,2c0.3,0.3,0.9,0.6,2,0.6h5.2c9-0.6,18.2,0.3,27.5,2
				c9,1.7,17.4,4.6,25.2,9.3c7.5,4,13.3,9.3,17.6,15.6c4.6,6.9,6.9,14.5,6.7,23.1c-1.7,9.5-2.9,17.6-3.8,24
				c-0.6,3.5-0.9,6.7-1.2,9.3c-0.3,2.9-0.3,5.2-0.3,7h0.3c0,0.9,0.6,1.2,1.4,1.2s1.5-0.6,1.7-1.2V368c0.6-2,0.9-4.9,1.2-8.4
				c0-1.2,0.3-4.6,0.9-10.4c0.6-10.4,1.7-19.1,2.9-26c3.8-20.2,7.5-37,11.6-50.3H246c1.4,0,2.8,0,4.2,0.1c1.2,0,2.4,0.1,3.6,0.1
				c1.5,0,3,0.1,4.6,0.1c0.5,0,1,0,1.5,0c0.8,0,1.5,0,2.2,0.1c10.2,0.3,20.2,0.9,29.5,1.9c4.9,0.3,9.5,0.9,13.6,1.4
				c4,0.6,7.5,1.4,10.1,2c1.2,0.6,2,0.9,2.3,1.2c0.6,0.9,1.4,1.2,2.3,0.9c0.9,0,1.5-0.6,1.5-1.7
				C321.5,278.4,321.2,277.8,320.6,277.2z M213,318.9c-2-9.8-6.9-17.9-14.8-24.9c-11.6-10.1-25.7-15.9-42.2-17.1l-0.3-0.3
				c0.3,0,0.3,0,0.6,0c2.3-0.3,5.2-0.6,8.4-0.6c2.9-0.3,5.2-0.6,7.2-0.6c13.3-1.2,26.9-1.7,40.8-2c5.8-0.3,9-0.3,9.3-0.3
				C217.6,295.2,214.7,310.2,213,318.9z"/>
		</g>
		<g>
			<path class="st0" d="M274.6,326.7c-0.4-0.4-1-0.4-1.5,0.1c-0.2,0.2-0.4,0.4-0.5,0.7c-0.9,1.7-2.3,4-4.6,6.9
				c-1.2,1.2-3.5,3.8-7,8.1c-3.5,4.3-5.8,5.8-6.9,4.6c0-0.3-0.3-0.3-0.3-0.3c-0.6-0.6-0.9-1.5-0.9-2.9c-0.3-1.5-0.3-3.8-0.3-7.5V331
				c0-0.9-0.3-1.7-0.3-2.3c-0.6-1.4-1.2-2.3-2.3-2.9c-4.6-2.3-10.4,3.2-17.9,16.8c-1.5,2.9-2.9,5.8-4.3,8.7V351l0.3-0.9
				c0-0.6,0.3-1.5,0.3-2.3c0.6-1.7,0.9-4.1,1.5-6.4c0.6-2.3,1.2-4.3,1.4-6.1c0.3-1.5,0.6-2.6,0.9-3.8c0.3,0,0.3,0,0.3-0.3
				c0-0.3,0-0.3,0-0.6v-0.3c1.2,0,2.6-1.5,4.6-3.8c2.3-3.2,4.6-6.1,6.7-9.3c2.9-4.9,6.1-10.7,9.5-17.9c1.2-2.6,2-4.9,3.2-7.2
				c0.9-1.7,1.4-3.8,2-5.5c1.4-4.6,2.9-9.3,3.8-13.3c0-0.1,0-0.1,0-0.2c0.1-0.6,0.2-1.2,0.3-1.8c0.6-3.5,0.7-5.7,0.2-7
				c-0.3-1.2-0.6-2-1.4-2.3c-0.6-0.6-1.5-0.6-2.6,0c-2.2,1.1-4.7,4.1-7.5,9c-0.3,0.6-0.7,1.1-1,1.8c-1.4,2.6-2.9,5.7-4.5,9.2
				c-2.3,5.2-4.6,11.3-6.9,17.9c-2.3,6.9-4.3,13.9-6.1,21.1c-0.6,2-0.9,3.2-0.9,3.5c0,0-0.3,0.3-0.6,0.3c-0.9,0.3-1.4,0.9-1.7,1.7
				c-0.3,0.9,0,1.7,0.6,2.3l0.6,0.6l-1.7,7.2c-1.2,4.6-2,9.5-3.2,14.5c-0.9,4.3-1.7,7.8-2.3,10.1l-0.3,0.6c-0.6,2.3-1.2,3.8-1.2,4.6
				c-0.3,0.9,0,1.4,0.3,1.7c0.6,0.6,1.4,0.9,2,0.3c0.3,0,0.6-1.2,1.2-3.2c0.3-0.6,0.6-1.5,0.6-2c0,0,0.3-0.3,0.3-0.9v-0.9
				c1.4-4.6,3.5-9.5,6.4-15c2.6-5.2,5.5-9.5,8.4-13c2.9-3.8,5.5-5.8,7.5-5.8l0.3,0.3c0.3,0,0.6,0.6,0.9,2.3c0,0.9,0.3,3.2,0.3,6.4
				c0.3,3.8,0.3,6.4,0.6,7.8c0.3,1.5,0.6,2.6,1.2,3.5c0.3,0.3,0.3,0.6,0.6,0.6c0.3,0.6,0.9,0.9,1.5,1.2c1.7,0.6,4.6-1.2,8.4-4.9
				c1.5-1.7,3.2-3.5,4.9-5.5c1.7-2,3.2-4,4.6-5.8c0.1-0.1,0.1-0.2,0.2-0.3c1.4-1.9,2.4-3.5,3-4.6
				C275.2,327.8,275.2,327.3,274.6,326.7z M235,320.3c0.6-1.7,1.2-4.1,2-6.7c0.9-2.6,1.4-4.9,2-6.7c2.6-7.5,5.2-14.5,8.1-20.8
				c2.2-5.1,4.5-9.4,6.7-13.1c0.4-0.6,0.8-1.2,1.1-1.8c0.3-0.4,0.6-0.9,0.8-1.3c0-0.6,0.3-0.9,0.6-1.2c2-2.9,3.5-4.3,4-4.3
				c0.3,0.3,0.6,1.4,0.3,3.8c-0.1,0.9-0.2,2-0.4,3.1c-0.1,0.6-0.2,1.2-0.3,1.8c-0.3,1.6-0.7,3.5-1.3,5.5c-2,7.8-5.2,15.6-9.5,23.7
				c-4.3,8.1-9,14.8-14.2,20l-0.3,0.3l-0.3,0.3C234.4,322.3,234.7,321.5,235,320.3z"/>
		</g>
		<g>
			<path class="st0" d="M309,325.8c-0.6-0.3-0.9,0-1.4,0.6c-2,2.3-4.6,4.6-8.4,7.2c-3.8,2.6-6.9,4.6-9.8,5.8c-2.9,1.5-5.5,2-7.8,2
				c-1.2,0-2.3-0.3-3.2-0.6c-1.4-0.6-2.6-1.2-3.2-2.3c-0.9-1.4-1.2-3.2-1.2-5.5c0-2,0.3-3.5,1.2-4.3c0.9,0.6,1.7,0.9,3.2,0.9
				c2,0,4.6-1.2,7.5-3.2c2.9-2,5.8-4.6,8.1-7.5c0.6-0.6,1.2-1.4,1.7-2.3c1.4-2.3,2.3-4.3,2.3-6.1c0-2-0.6-3.2-2-4.1
				c-0.6-0.3-1.4-0.6-2.6-0.6c-3.2,0-7,2-10.7,5.5c-2.9,2.6-5.2,5.8-6.9,9.3c-1.2,2.1-2,4.2-2.7,6.2c-0.5,1.5-0.8,3-1.1,4.5
				c-0.1,0.7-0.1,1.4-0.1,2c0,2.6,0.3,4.7,1.3,6.3c1.4,2.6,3.8,4.3,7.2,4.6h3.5c2-0.3,4.3-1.2,7.2-2.3c6.1-2.9,11.9-6.9,17.1-12.4
				c0.6-0.6,0.9-0.9,1.5-1.4c0.3-0.6,0.3-1.2,0.3-1.5C309.6,326.1,309.6,325.8,309,325.8z M276.6,323.2c2-4.1,4.3-7.2,7-9.8
				c2-2,4-3.5,6.4-4.3c2.3-0.9,3.8-1.2,4.6-0.6c0.9,0.6,0.9,1.4,0.6,2.9c-0.6,1.7-1.7,3.5-3.5,5.8c-2,2.3-3.8,4.1-5.5,5.2
				c-1.7,1.7-3.8,2.6-5.8,2.9c-0.9,0.3-1.7,0.3-2.3,0c-0.6-0.3-1.2-0.3-1.7-0.3h-0.3C276.1,324.9,276.1,324.4,276.6,323.2z"/>
		</g>
		<g>
			<path class="st0" d="M421.9,285.9v-0.3h-0.3c-1.2,0-3.8,1.4-7.8,4.3c-4.3,2.9-11,7.8-20.2,14.8c-15.6,11.6-28.9,21.1-39.6,28.3
				c-3.5,2.3-7.5,4.9-11.6,7.5c-13.3,8.7-26,16.2-38.5,22.9c-12.4,6.7-24.3,12.1-35.3,16.2c-2.3,0.9-5.2,1.7-8.4,2.9
				c-4.6,1.4-8.4,2.3-10.7,2.9c-2.9,0.6-4.3,0-4.6-1.7c-0.3-1.7,0.6-2.9,3.2-3.2c0.9,0,1.4,0,2,0c0.3,0,1.2,0,2.6-0.3
				c1.4-0.3,3.2-0.6,4.9-1.2c1.4-0.3,2.6-0.6,3.8-0.9c4.1-1.2,8.4-2.6,13.3-4.6c4.9-1.7,9.8-3.8,15.3-6.4c11-5.2,22.3-11,33.8-17.6
				c2.6-1.7,5.2-3.2,7.5-4.6c17.9-11,39.3-25.7,64.2-44.8c7.2-5.8,12.7-9.8,15.9-12.1c3.5-2.3,5.8-4,7.2-4.9
				c2.3-1.2,3.8-1.2,4.9-0.6c0.3,0.3,0.6,0.6,1.2,0.6c0.9,0.9,1.2,2.3,1.2,4.6c-0.3,2-0.9,5.2-2,9.3c-0.6,2.3-2,6.7-4.1,13.3
				c-4.3,15-7.8,26.9-10.1,35.6c-2.3,9-4.1,16.2-5.2,22c-0.3,1.2-0.6,2.6-0.6,4c-0.6,2.3-0.9,4.3-1.2,6.4c-0.3,2-0.6,3.5-0.6,4.3
				c0,0.3-0.3,1.2-0.3,2.6s0,2.3,0.3,2.6c0.6-0.6,1.4-1.4,2.3-2.9c1.2-1.7,2.3-4.3,4-7.5c1.7-3.2,3.8-7.2,5.8-11.9
				c4.6-9.3,10.4-21.7,17.1-37c5.2-11.9,9-20.2,11.3-25.2c1.2-2.6,2-4.6,2.9-5.8c0.6-1.4,0.9-2.3,1.2-2.6c1.2-1.4,2-1.7,3.2-0.6
				c0,0,0.3,0,0.3,0.3c0.3,0.6,0.6,1.2,0.6,2c0,0.9-0.3,2.3-0.6,4.3c-1.7,12.1-3.2,22.9-4,32.7c-0.3,4.9-0.6,9.3-0.6,13.3
				c0,4,0,7.5,0.3,10.4c0.3,5.2,1.4,9.5,2.9,13c1.7,3.5,3.8,5.8,6.4,6.4c0.9,0,1.7,0,3.2-0.3c1.7-0.3,3.8-1.2,5.8-2.9
				c3.5-2.3,7.2-6.4,11.6-12.1c2.9-4,5.8-8.4,8.7-12.7c5.8-9.3,10.1-18.5,13.6-27.8c3.5-9.3,5.5-17.4,5.8-24c0-1.4,0-3.5-0.3-5.8
				c-0.3-2-0.6-3.5-0.9-4c-0.3-0.6-0.6-1.4-1.2-2.3c-1.4-2.9-3.8-5.5-7.2-7.8c-3.8-2.6-6.9-3.8-9-3.8c-0.9,0-1.7,0.6-2.3,1.2
				c-1.2,1.2-2.3,1.2-3.2,0.6c-1.4-1.2-1.2-2.3,0.9-3.8c2.3-1.7,4.6-2,7.5-0.9c1.4,0.6,3.2,1.2,4.9,2.3c1.7,1.2,3.2,2.3,4.6,3.8
				c1.4,1.4,2.6,2.6,3.5,4c4.6,6.9,5.8,16.5,3.2,28.1c-0.6,2-1.4,4.9-2.6,8.7c-1.2,3.2-2,5.8-2.6,7.5c-5.8,14.5-13,27.5-21.7,39.1
				c-7.5,9.8-13.9,15.3-19.7,16.2c-6.1,0.9-10.7-2.9-13.6-11.9c-0.3-0.6-0.6-1.4-0.6-2.9c-0.3-1.2-0.6-2.6-0.6-4
				c-0.6-2.9-0.6-5.2-0.6-6.4c0-4.3,0-9.8,0.3-15.9c0.3-6.4,0.9-12.7,1.4-19.4c0.6-4.9,1.2-9.5,1.7-14.2c-0.3,0.6-0.6,1.4-1.2,2.3
				c-1.2,2.6-2.6,5.5-4.1,8.7c-2.3,5.2-4.1,8.7-5.2,11c-0.6,1.4-1.4,3.5-2.6,6.1c-1.2,2.6-2.3,4.6-2.9,6.1
				c-5.8,12.7-10.7,23.7-15,32.4c-2,4.3-4.1,7.8-5.5,10.7c-1.7,2.9-2.9,4.9-3.8,6.4c-1.7,2.3-3.2,2.9-4.6,2.3
				c-0.9-0.3-1.4-1.4-1.7-3.5c-0.3-1.7,0-4.6,0.3-8.4c0.6-4,1.4-9,2.9-15c1.4-6.1,3.2-13.6,5.5-22.3c2.3-8.4,4.9-18.2,8.1-29.2
				c1.4-5.5,2.6-9.5,3.2-11.9C421.3,292,422.4,287.1,421.9,285.9z"/>
		</g>
		<g>
			<path class="st0" d="M543.3,325.8c-0.6-0.3-0.9,0-1.4,0.6c-0.1,0.1-0.2,0.2-0.3,0.4c-2,2.2-4.5,4.4-8.1,6.9
				c-3.8,2.6-6.9,4.6-9.8,5.8c-2.9,1.5-5.5,2-7.8,2c-1.2,0-2.3-0.3-3.2-0.6c-1.4-0.6-2.6-1.2-3.2-2.3c-0.9-1.4-1.2-3.2-1.2-5.5
				c0-2,0.3-3.5,1.2-4.3c0.9,0.6,1.7,0.9,3.2,0.9c2,0,4.6-1.2,7.5-3.2c2.9-2,5.8-4.6,8.1-7.5c0.6-0.6,1.2-1.4,1.7-2.3
				c1.4-2.3,2.3-4.3,2.3-6.1c0-2-0.6-3.2-2-4.1c-0.6-0.3-1.4-0.6-2.6-0.6c-3.2,0-6.9,2-10.7,5.5c-2.9,2.6-5.2,5.8-6.9,9.3
				c-2,3.8-3.2,7.2-3.8,10.7c-0.3,3.5,0,6.4,1.2,8.4c1.4,2.6,3.8,4.3,7.2,4.6h3.5c2-0.3,4.3-1.2,7.2-2.3c5.3-2.5,10.4-5.9,15-10.4
				c0.7-0.7,1.4-1.4,2-2.1c0.6-0.6,0.9-0.9,1.5-1.4c0.3-0.6,0.3-1.2,0.3-1.5C543.9,326.1,543.9,325.8,543.3,325.8z M510.9,323.2
				c2-4.1,4.3-7.2,6.9-9.8c2-2,4-3.5,6.4-4.3c2.3-0.9,3.8-1.2,4.6-0.6c0.9,0.6,0.9,1.4,0.6,2.9c-0.6,1.7-1.7,3.5-3.5,5.8
				c-2,2.3-3.8,4.1-5.5,5.2c-1.7,1.7-3.8,2.6-5.8,2.9c-0.9,0.3-1.7,0.3-2.3,0c-0.6-0.3-1.2-0.3-1.7-0.3h-0.3
				C510.4,324.9,510.4,324.4,510.9,323.2z"/>
		</g>
		<g>
			<path class="st0" d="M577.5,325.8c-0.6-0.3-0.9,0-1.4,0.6c-0.2,0.2-0.4,0.5-0.7,0.8c-1.9,2.1-4.4,4.2-7.7,6.5
				c-3.8,2.6-6.9,4.6-9.8,5.8c-2.9,1.5-5.5,2-7.8,2c-1.2,0-2.3-0.3-3.2-0.6c-1.5-0.6-2.6-1.2-3.2-2.3c-0.9-1.4-1.2-3.2-1.2-5.5
				c0-2,0.3-3.5,1.2-4.3c0.9,0.6,1.7,0.9,3.2,0.9c2,0,4.6-1.2,7.5-3.2c2.9-2,5.8-4.6,8.1-7.5c0.6-0.6,1.2-1.4,1.7-2.3
				c1.4-2.3,2.3-4.3,2.3-6.1c0-2-0.6-3.2-2-4.1c-0.6-0.3-1.5-0.6-2.6-0.6c-3.2,0-6.9,2-10.7,5.5c-2.9,2.6-5.2,5.8-6.9,9.3
				c-1.1,2.1-2,4.2-2.6,6.2c-0.5,1.5-0.9,3-1.1,4.5c0,0.1,0,0.2,0,0.3c-0.2,3.3,0.1,6.1,1.2,8.1c1.5,2.6,3.8,4.3,7.2,4.6h3.5
				c2-0.3,4.3-1.2,7.2-2.3c6.1-2.9,11.9-6.9,17.1-12.4c0.6-0.6,0.9-0.9,1.5-1.4c0.3-0.6,0.3-1.2,0.3-1.5
				C578.1,326.1,578.1,325.8,577.5,325.8z M545.4,323.2c1.7-4.1,4-7.2,6.9-9.8c2-2,4.1-3.5,6.4-4.3c2.3-0.9,3.8-1.2,4.6-0.6
				c0.9,0.6,0.9,1.4,0.6,2.9c-0.6,1.7-1.7,3.5-3.5,5.8c-2,2.3-3.8,4.1-5.5,5.2c-1.7,1.7-3.8,2.6-5.8,2.9c-0.9,0.3-1.7,0.3-2.3,0
				c-0.6-0.3-1.2-0.3-1.7-0.3h-0.3C544.8,324.9,544.8,324.4,545.4,323.2z"/>
		</g>
		<g>
			<path class="st0" d="M607.4,325.5c-0.4-0.1-0.8,0.2-1,0.9c0,0.3-0.3,0.9-0.9,2c0,0-0.6,1.2-1.5,3.2c-1.4,3.8-2.9,6.9-4,9.3
				c-4.3,8.4-7.5,12.7-9.3,12.7c-1.2,0-2.6-2-4.9-6.4c-2-3.8-3.5-6.1-4.6-7.2c-0.3-0.3-0.6-0.6-0.6-0.6c0.6-0.3,1.2-0.6,2-0.9
				c0.9-0.3,1.2-0.6,1.2-0.6c2.6-1.2,4.3-2,5.5-2.9c2-1.5,4.1-3.2,5.5-5.5c1.4-2,2.3-4.3,2.3-6.7c0-2.6-1.2-4-3.2-4
				c-1.4,0-3.2,0.9-5.5,3.2c-3.5,3.5-6.9,8.1-9.8,14.2l-1.2,2h-0.6v0.3h-0.3c0-0.3,0-1.2,0.3-2.3v-0.6c0.3-0.3,0.3-0.9,0.6-1.7
				c0.3-0.9,0.6-1.4,0.6-2v-0.3c0.3-0.6,0.3-0.9,0.3-1.2c1.2,0,2.6-1.5,4.6-3.8c2.3-3.2,4.6-6.1,6.7-9.3c2.9-4.9,6.1-10.7,9.5-17.9
				c1.2-2.6,2.3-4.9,3.2-7.2c0.9-1.7,1.4-3.8,2-5.5c1.4-4.6,2.9-9.3,3.8-13.3c0.9-4.6,1.2-7.5,0.9-9c-0.3-1.2-0.9-2-1.7-2.3
				c-0.6-0.6-1.5-0.6-2.6,0c-3.5,1.7-7.8,8.4-13,20c-2.3,5.2-4.6,11.3-6.9,17.9c-2.3,6.9-4.3,13.9-6.1,21.1c-0.6,2-0.9,3.2-0.9,3.5
				c0,0-0.3,0.3-0.6,0.3c-0.9,0.3-1.5,0.9-1.7,1.7c0,0.2-0.1,0.3-0.1,0.5c-0.1,0.7,0.2,1.4,0.7,1.8l0.6,0.6c-0.9,3.8-2,9.3-3.2,16.8
				c-0.6,3.8-1.4,7.2-2,10.7c-0.6,2.3-0.6,3.8,0,4.3c0.6,0.6,1.5,0.6,2,0c0.3-0.3,0.6-1.2,0.6-2.3c0.6-3.5,1.7-8.1,4-13.6l1.2-2.9
				l0.3,0.3c0.9,0.9,2,2.6,3.8,5.8c1.7,3.2,3.2,5.2,4,6.4c0.6,0.6,1.5,1.2,2.3,1.2c1.2,0,2.9-0.9,4.6-2.9c1.7-2,3.2-3.8,4.1-5.2
				c0.9-1.5,1.7-3.2,2.9-5.2c1.2-2.3,2.3-5.2,4-8.7c0.2-0.3,0.3-0.6,0.5-0.9c1.4-2.7,2.1-4.4,2.4-4.9c0.6-1.2,0.3-2-0.3-2.6
				C607.7,325.7,607.5,325.6,607.4,325.5z M582.7,334.5c0.9-1.2,1.4-2.6,2.3-3.8c1.2-2,2.3-3.8,3.5-4.9c1.5-1.4,2.9-2.6,4.1-3.5
				c0.9-0.9,1.7-1.2,2-0.9c0.6,1.4,0.3,3.2-0.9,5.8c-1.5,3.2-4.9,6.1-9.8,8.4c-1.2,0.6-1.7,0.9-1.7,0.6
				C582.4,335.6,582.4,335.1,582.7,334.5z M581,320.3c0.6-1.7,1.2-4.1,2-6.7c0.9-2.6,1.4-4.9,2-6.7c2.6-7.5,5.2-14.5,8.1-20.8
				c2.9-6.7,5.8-11.9,8.7-16.2c0-0.6,0.3-0.9,0.6-1.2c2-2.9,3.5-4.3,4-4.3c0.3,0.3,0.6,1.4,0.3,3.8c-0.3,2.6-0.9,6.1-2,10.4
				c-1.4,4.9-3.2,10.1-5.5,15.3c-2.3,5.2-4.9,10.4-8.1,15.3c-3.5,5.2-6.7,9.5-10.1,13l-0.3,0.3l-0.3,0.3
				C580.4,322.3,580.7,321.5,581,320.3z M576,341.7c0-0.3,0.3-0.6,0.3-0.9v-0.3h0.3C576.6,340.9,576.3,341.1,576,341.7z"/>
		</g>
		<g>
			<path class="st0" d="M642.9,325.8c-0.5-0.2-0.8-0.1-1.2,0.3c-0.1,0.1-0.2,0.2-0.3,0.3c-2,2.3-4.6,4.6-8.4,7.2
				c-3.8,2.6-6.9,4.6-9.8,5.8c-2.9,1.5-5.5,2-7.8,2c-1.2,0-2.3-0.3-3.2-0.6c-1.5-0.6-2.6-1.2-3.2-2.3c-0.9-1.4-1.2-3.2-1.2-5.5
				c0-2,0.3-3.5,1.2-4.3c0.9,0.6,1.7,0.9,3.2,0.9c2,0,4.6-1.2,7.5-3.2c2.9-2,5.8-4.6,8.1-7.5c0.6-0.6,1.2-1.4,1.7-2.3
				c1.5-2.3,2.3-4.3,2.3-6.1c0-2-0.6-3.2-2-4.1c-0.6-0.3-1.5-0.6-2.6-0.6c-3.2,0-6.9,2-10.7,5.5c-2.9,2.6-5.2,5.8-6.9,9.3
				c-0.9,1.7-1.6,3.3-2.2,4.9c-0.7,2-1.2,3.9-1.5,5.8c-0.1,0.7-0.1,1.4-0.1,2c0,2.6,0.3,4.8,1.2,6.4c1.5,2.6,3.8,4.3,7.2,4.6h3.5
				c2-0.3,4.3-1.2,7.2-2.3c6.1-2.9,11.9-6.9,17.1-12.4c0.3-0.3,0.5-0.5,0.7-0.7c0.2-0.2,0.5-0.5,0.8-0.8c0.3-0.6,0.3-1.2,0.3-1.5
				C643.4,326.1,643.4,325.8,642.9,325.8z M610.5,323.2c2-4.1,4.3-7.2,6.9-9.8c2-2,4-3.5,6.4-4.3c2.3-0.9,3.8-1.2,4.6-0.6
				c0.9,0.6,0.9,1.4,0.6,2.9c-0.6,1.7-1.7,3.5-3.5,5.8c-2,2.3-3.8,4.1-5.5,5.2c-1.7,1.7-3.8,2.6-5.8,2.9c-0.9,0.3-1.7,0.3-2.3,0
				c-0.6-0.3-1.2-0.3-1.7-0.3h-0.3C609.9,324.9,609.9,324.4,610.5,323.2z"/>
		</g>
		<g>
			<path class="st0" d="M673.8,325.8c-0.2-0.1-0.4-0.1-0.5-0.1c-0.6,0-1.1,0.3-1.5,1.3c-1.4,4.1-3.2,7.8-4.6,10.7
				c-3.5,7.2-6.4,10.7-8.1,10.4c-0.3,0-0.6-0.3-0.6-0.3c-1.2-0.9-1.7-3.5-1.7-7.5c0.3-3.5,1.2-8.7,3.2-15.9c0.6-2.6,1.2-4.6,1.5-6.1
				c0.3-1.5,0.6-2.6,0.6-3.2c0-0.9,0-1.4-0.6-1.7c-0.3-0.3-0.9-0.6-1.2-0.6c-0.9,0-1.4,0.3-2.3,1.4c-0.9,0.9-2,2.6-3.5,5.2
				c-2.9,4.6-5.2,9-6.9,13.3c0-0.3,0.3-0.6,0.3-0.9c1.4-7.2,2.3-12.4,2.6-15.3c0.3-2.3,0-3.5-0.6-4c-1.4-0.9-2.9-0.3-4.3,2.3
				c-2.3,4-3.8,7.5-3.8,11v0.3c0,1,0,1.8,0.3,2c0.2,0.3,0.4,0.6,0.7,0.8c0.4,0.3,0.9,0.4,1.6,0.4c0.6,0,1.2-0.3,1.5-0.6v0.3
				c-0.3,0.9-0.3,1.4-0.6,2.3c-0.6,2-0.9,4.3-1.2,6.7c-0.3,0.9-0.3,1.4-0.3,2c-0.3,2-0.6,3.5-0.6,4c-0.3,0.6,0,1.2,0.3,1.4
				c0.6,0.6,1.5,0.6,2,0c0.3-0.3,0.9-2,2-5.5c1.7-5.2,3.2-9.3,4.9-12.4c0.6-0.9,1.5-2,2-3.2c1.7-3.2,2.9-5.2,4-6.9l-0.3,0.6
				c-0.3,0.9-0.3,2-0.6,3.2c-1.2,5.5-2,9.5-2.3,12.1c-0.3,2.9-0.6,5.2-0.6,7.2c0,2.6,0.3,4.6,0.9,6.1c0.6,1.7,1.4,2.6,2.6,2.9h0.6
				c2.4,0.2,5.1-2.2,8.3-7.3c0.6-1,1.2-2,1.9-3.1c2.3-3.8,4.1-7.5,5.2-11C674.7,326.7,674.4,326.1,673.8,325.8z M646,322l-0.3,3.8
				c-0.6-0.6-0.6-1.7-0.3-3.5c0-1.2,0.6-2.9,1.2-5.5L646,322z"/>
		</g>
		<g>
			<path class="st0" d="M720.7,265.4l-0.3-0.3c-0.6-0.6-1.4-0.6-2.3,0c-0.3,0.3-1.2,2-2.3,4.9c-1.4,3.5-2.9,6.4-4,9
				c-1.4,3.2-4,9-8.1,17.6c-3.5,7.2-5.8,12.4-7.2,15.3c-0.6,1.7-1.2,2.9-1.7,3.8v0.3c-0.3,0.3-0.3,0.6-0.3,0.6l-0.3-0.3
				c-0.6-1.2-1.7-2.3-3.2-2.9c-0.6-0.3-1.7-0.3-2.9-0.3c-1.2,0-2.3,0.3-3.5,0.9c-4.1,1.9-7.8,5.8-11.2,11.8
				c-0.7,1.2-1.4,2.5-2.1,3.9c-2.5,5.2-3.9,9.4-4.2,12.7c-0.3,3.1,0.5,5.3,2.2,6.7c0.3,0,0.6,0.3,1.2,0.6c0.6,0.3,1.2,0.3,1.7,0.3
				c2.6,0,5.5-2,9-6.4c0.9-1.2,2-2.6,3.5-4.9c1.2-2,2.6-4.3,4-6.7c0.9-1.4,1.7-3.2,2.6-4.6c0-0.3,0-0.6,0.3-0.9
				c0.3-0.6,0.6-1.2,0.9-1.5c0,0.3,0,0.3,0.3,0.3c1.4,0.3,2.3,0,2.9-1.5c0.3-0.6,0.3-1.4,0-2.6c-0.3-0.9-0.3-1.7-0.3-2
				c0-0.3,0.3-0.6,0.6-1.4c0.3-0.9,0.9-1.7,1.4-2.9c1.5-2.9,3.5-7.2,6.4-13.6c2.6-5.5,4.3-9.5,5.8-12.4c0-0.6,0.3-0.9,0.3-0.9
				c-3.8,12.4-6.1,24.3-6.7,35.9c-0.3,2.3-0.3,5.8-0.3,10.7c0.3,4.6,0.3,8.1,0.6,10.4c0.6,6.9,1.2,12.1,2.3,15.3
				c0.9,2.3,1.7,3.8,2.6,4c1.2,0.6,2,0.3,2.9-0.6c1.2-1.2,1.4-2,0.9-3.2c-0.3-0.9-1.2-1.2-2.3-0.9c0,0.3-0.3,0.3-0.3,0.3
				c-0.6-0.6-1.2-2.9-2-6.4c-0.6-2-1.2-3.5-1.2-4.6c-0.9-4.3-1.2-9.8-1.2-15.9c-0.3-4.1,0-7.5,0.3-11c1.4-13.6,5.2-28.6,11.9-45.1
				c0.9-2.6,1.7-4.3,2-5.5c0.6-1.5,0.9-2.6,1.2-3.2C721,266.8,721,265.9,720.7,265.4z M689.1,326.7c-6.1,11.6-11,18.2-14.5,20.5
				c-2,1.2-3.5,0.9-4-0.6c-0.3-0.6-0.3-1.4-0.3-2.9c0-1.4,0.3-2.9,0.9-4.6c0.6-2.3,1.7-4.9,3.2-7.2c1.5-2.9,3.5-5.5,5.8-8.4
				c2.3-2.9,4.6-4.6,6.7-5.2c0.9-0.3,1.7-0.3,2.3,0.3c0.6,0.3,1.2,1.4,1.5,3.2l0.3,1.5L689.1,326.7z"/>
		</g>
	</g>
	<g>
		<path class="st0" d="M695,72.4c-14.2,0-25.8,11.6-25.8,25.8c0,14.2,11.6,25.8,25.8,25.8s25.8-11.6,25.8-25.8
			C720.9,84,709.3,72.4,695,72.4z M693.5,120.9c-5.1-0.3-9.8-2.4-13.5-5.6l13.5-13.5V120.9z M693.5,97.6l-15.6,15.6
			c-3.5-4-5.6-9.2-5.6-15c0-12.1,9.4-21.9,21.2-22.7V97.6z M696.6,120.9v-19l13.5,13.5C706.4,118.5,701.7,120.5,696.6,120.9z
			 M712.2,113.2l-15.6-15.6V75.5c11.9,0.8,21.2,10.7,21.2,22.7C717.8,103.9,715.7,109.2,712.2,113.2z"/>
	</g>
	<g>
		<g>
			<path class="st0" d="M25.8,72.4C11.6,72.4,0,84,0,98.2C0,112.4,11.6,124,25.8,124c14.2,0,25.8-11.6,25.8-25.8
				C51.6,84,40,72.4,25.8,72.4z M14.4,101.7c-2,0-3.6-1.6-3.6-3.6c0-2,1.6-3.6,3.6-3.6c2,0,3.6,1.6,3.6,3.6
				C18,100.2,16.4,101.7,14.4,101.7z M37.2,109.6c-6.3,0-11.4-5.1-11.4-11.4c0-6.3-5.1-11.4-11.4-11.4c-6.1,0-11,4.7-11.4,10.7
				c0.3-12.3,10.4-22.1,22.7-22.1c12.6,0,22.8,10.2,22.8,22.8c0,0.2,0,0.4,0,0.7C48.2,104.8,43.2,109.6,37.2,109.6z"/>
		</g>
		<g>
			<circle class="st0" cx="37.2" cy="98.2" r="3.6"/>
		</g>
	</g>
</g>
</svg>
