<?xml version="1.0" encoding="utf-8"?>
<!-- Generator: Adobe Illustrator 24.2.1, SVG Export Plug-In . SVG Version: 6.00 Build 0)  -->
<svg version="1.1" id="Layer_1" xmlns="http://www.w3.org/2000/svg" xmlns:xlink="http://www.w3.org/1999/xlink" x="0px" y="0px"
	 viewBox="0 0 720 439.2" style="enable-background:new 0 0 720 439.2;" xml:space="preserve">
<style type="text/css">
	.st0{fill:#FFFFFF;}
</style>
<g>
	<g>
		<path class="st0" d="M0,28.4h5.1c0.7,7.1,5,10.7,12.9,10.7c5.8,0,9.9-2.6,9.9-7.8c0-5.7-5-7.1-12.5-8.7C8.1,21,1.8,18.9,1.8,11
			C1.8,4.1,7.5,0,16,0c10.5,0,14.8,5.3,15.8,13h-5C26,7,22.2,4.1,16.1,4.1c-5.7,0-9.4,2.4-9.4,6.7c0,4.7,4.7,6.1,10.9,7.4
			c8.1,1.6,15.5,3.6,15.5,13c0,7.8-6.4,12.2-15.4,12.2C6.1,43.4,0.5,36.9,0,28.4z"/>
		<path class="st0" d="M50.9,0.8h5.9l15.4,41.8h-5.7l-4.4-12.7H45.4L41,42.6h-5.4L50.9,0.8z M47,25.6h13.7l-4.8-14
			C55,9.2,54,5.7,54,5.7h-0.1c0,0-1.1,3.5-1.9,5.9L47,25.6z"/>
		<path class="st0" d="M73.5,28.4h5.1c0.7,7.1,5,10.7,12.9,10.7c5.8,0,9.9-2.6,9.9-7.8c0-5.7-5-7.1-12.5-8.7
			C81.7,21,75.4,18.9,75.4,11c0-6.9,5.7-11,14.2-11c10.5,0,14.8,5.3,15.8,13h-5c-0.8-6-4.6-8.9-10.7-8.9c-5.7,0-9.4,2.4-9.4,6.7
			c0,4.7,4.7,6.1,10.9,7.4c8.1,1.6,15.5,3.6,15.5,13c0,7.8-6.4,12.2-15.4,12.2C79.6,43.4,74,36.9,73.5,28.4z"/>
		<path class="st0" d="M110.1,28.4h5.1c0.7,7.1,5,10.7,12.9,10.7c5.8,0,9.9-2.6,9.9-7.8c0-5.7-5-7.1-12.5-8.7
			c-7.4-1.6-13.7-3.7-13.7-11.6c0-6.9,5.7-11,14.2-11c10.5,0,14.8,5.3,15.8,13h-5c-0.8-6-4.6-8.9-10.7-8.9c-5.7,0-9.4,2.4-9.4,6.7
			c0,4.7,4.7,6.1,10.9,7.4c8.1,1.6,15.5,3.6,15.5,13c0,7.8-6.4,12.2-15.4,12.2C116.2,43.4,110.6,36.9,110.1,28.4z"/>
		<path class="st0" d="M158.8,24.9L143.7,0.8h5.8l12,19.9h0.1l12.2-19.9h5.6L164,25v17.6h-5.3V24.9H158.8z"/>
	</g>
	<g>
		<path class="st0" d="M618.8,22.5c0-13,6.1-20.9,15.6-20.9s15.5,7.8,15.5,20.9c0,12.7-5.5,20.9-15.5,20.9
			C624.5,43.5,618.8,35.3,618.8,22.5z M644.8,22.5c0-10.2-3.4-16.7-10.4-16.7c-7.1,0-10.5,6.4-10.5,16.7c0,10.2,3.4,16.6,10.5,16.6
			C641.5,39.2,644.8,32.9,644.8,22.5z"/>
		<path class="st0" d="M655,22.5c0-13,6.1-20.9,15.6-20.9s15.5,7.8,15.5,20.9c0,12.7-5.5,20.9-15.5,20.9
			C660.7,43.5,655,35.3,655,22.5z M681,22.5c0-10.2-3.4-16.7-10.4-16.7c-7.1,0-10.5,6.4-10.5,16.7c0,10.2,3.4,16.6,10.5,16.6
			C677.7,39.2,681,32.9,681,22.5z"/>
		<path class="st0" d="M691.1,31.7h5c0.4,4.4,3.4,7.6,8.8,7.6c3,0,5.2-0.9,6.8-2.6c2.4-2.6,3.3-7.1,3.6-13h-0.1
			c-2.6,3.2-6.3,5.1-11,5.1c-7.4,0-13.3-6.1-13.3-13.4c-0.1-7.5,5.9-13.7,14-13.7c3.9,0,7,1.2,9.2,3c4.6,3.5,6,9.2,6,18.2
			c0,8.1-1.6,14-5.6,17.5c-2.4,2.1-5.6,3.2-9.4,3.2C697.1,43.5,691.5,38.8,691.1,31.7z M714.5,15.1c0-5.7-4.4-9.5-9.8-9.5
			c-5.5,0-9.5,3.9-9.5,9.5s4.2,9.6,9.4,9.6C710.7,24.7,714.5,20.8,714.5,15.1z"/>
	</g>
</g>
<g>
	<g>
		<path class="st0" d="M0,424.2h5.1c0.7,7.1,5,10.7,12.9,10.7c5.8,0,9.9-2.6,9.9-7.8c0-5.7-5-7.1-12.5-8.7
			c-7.4-1.6-13.7-3.7-13.7-11.6c0-6.9,5.7-11,14.2-11c10.5,0,14.8,5.3,15.8,13h-5c-0.8-6-4.6-8.9-10.7-8.9c-5.7,0-9.4,2.4-9.4,6.7
			c0,4.7,4.7,6.1,10.9,7.4c8.1,1.6,15.5,3.6,15.5,13c0,7.8-6.4,12.2-15.4,12.2C6.1,439.1,0.5,432.6,0,424.2z"/>
		<path class="st0" d="M50.9,396.6h5.9l15.4,41.8h-5.7l-4.4-12.7H45.4L41,438.3h-5.4L50.9,396.6z M47,421.3h13.7l-4.8-14
			c-0.8-2.3-1.9-5.9-1.9-5.9h-0.1c0,0-1.1,3.5-1.9,5.9L47,421.3z"/>
		<path class="st0" d="M73.5,424.2h5.1c0.7,7.1,5,10.7,12.9,10.7c5.8,0,9.9-2.6,9.9-7.8c0-5.7-5-7.1-12.5-8.7
			c-7.4-1.6-13.7-3.7-13.7-11.6c0-6.9,5.7-11,14.2-11c10.5,0,14.8,5.3,15.8,13h-5c-0.8-6-4.6-8.9-10.7-8.9c-5.7,0-9.4,2.4-9.4,6.7
			c0,4.7,4.7,6.1,10.9,7.4c8.1,1.6,15.5,3.6,15.5,13c0,7.8-6.4,12.2-15.4,12.2C79.6,439.1,74,432.6,73.5,424.2z"/>
		<path class="st0" d="M110.1,424.2h5.1c0.7,7.1,5,10.7,12.9,10.7c5.8,0,9.9-2.6,9.9-7.8c0-5.7-5-7.1-12.5-8.7
			c-7.4-1.6-13.7-3.7-13.7-11.6c0-6.9,5.7-11,14.2-11c10.5,0,14.8,5.3,15.8,13h-5c-0.8-6-4.6-8.9-10.7-8.9c-5.7,0-9.4,2.4-9.4,6.7
			c0,4.7,4.7,6.1,10.9,7.4c8.1,1.6,15.5,3.6,15.5,13c0,7.8-6.4,12.2-15.4,12.2C116.2,439.1,110.6,432.6,110.1,424.2z"/>
		<path class="st0" d="M158.8,420.6l-15.1-24.1h5.8l12,19.9h0.1l12.2-19.9h5.6L164,420.7v17.6h-5.3v-17.7H158.8z"/>
	</g>
	<g>
		<path class="st0" d="M618.8,418.3c0-13,6.1-20.9,15.6-20.9s15.5,7.8,15.5,20.9c0,12.7-5.5,20.9-15.5,20.9
			C624.5,439.2,618.8,431,618.8,418.3z M644.8,418.3c0-10.2-3.4-16.7-10.4-16.7c-7.1,0-10.5,6.4-10.5,16.7
			c0,10.2,3.4,16.6,10.5,16.6C641.5,434.9,644.8,428.6,644.8,418.3z"/>
		<path class="st0" d="M655,418.3c0-13,6.1-20.9,15.6-20.9s15.5,7.8,15.5,20.9c0,12.7-5.5,20.9-15.5,20.9
			C660.7,439.2,655,431,655,418.3z M681,418.3c0-10.2-3.4-16.7-10.4-16.7c-7.1,0-10.5,6.4-10.5,16.7c0,10.2,3.4,16.6,10.5,16.6
			C677.7,434.9,681,428.6,681,418.3z"/>
		<path class="st0" d="M691.1,427.5h5c0.4,4.4,3.4,7.6,8.8,7.6c3,0,5.2-0.9,6.8-2.6c2.4-2.6,3.3-7.1,3.6-13h-0.1
			c-2.6,3.2-6.3,5.1-11,5.1c-7.4,0-13.3-6.1-13.3-13.4c-0.1-7.5,5.9-13.7,14-13.7c3.9,0,7,1.2,9.2,3c4.6,3.5,6,9.2,6,18.2
			c0,8.1-1.6,14-5.6,17.5c-2.4,2.1-5.6,3.2-9.4,3.2C697.1,439.2,691.5,434.5,691.1,427.5z M714.5,410.9c0-5.7-4.4-9.5-9.8-9.5
			c-5.5,0-9.5,3.9-9.5,9.5s4.2,9.6,9.4,9.6C710.7,420.5,714.5,416.5,714.5,410.9z"/>
	</g>
</g>
<g>
	<path class="st0" d="M693.9,75.2c12.6,0,22.8,10.2,22.8,22.8s-10.2,22.8-22.8,22.8s-22.8-10.2-22.8-22.8
		C671.2,85.4,681.4,75.2,693.9,75.2 M693.9,72.1c-14.2,0-25.8,11.6-25.8,25.8s11.6,25.8,25.8,25.8s25.8-11.6,25.8-25.8
		S708.2,72.1,693.9,72.1L693.9,72.1z"/>
	<circle class="st0" cx="693.9" cy="97.9" r="11.3"/>
</g>
<g>
	<path class="st0" d="M27.8,126l-1.3-2.6c-5-9.6-11-15-15.9-19.3C4.7,98.8,0,94.6,0,86c0-6,4.6-14.5,15-14.5c6,0,10,2.2,12.8,7.2
		c2.8-4.9,6.9-7.2,12.8-7.2c10.3,0,15,8.5,15,14.5c0,8.6-4.7,12.8-10.6,18.1c-4.8,4.3-10.8,9.7-15.9,19.3L27.8,126z M15,74.6
		c-8.2,0-11.9,6.7-11.9,11.5c0,7.2,4,10.8,9.6,15.8c4.6,4.1,10.2,9.1,15.2,17.7c5-8.6,10.6-13.6,15.2-17.7c5.6-5,9.6-8.6,9.6-15.8
		c0-4.8-3.7-11.5-11.9-11.5c-5.8,0-9.1,2.4-11.4,8.2L28,86.3l-1.4-3.5C24.1,77,20.7,74.6,15,74.6z"/>
</g>
<g>
	<path class="st0" d="M329,250.9c-1.6-1.2-3.4-1.7-5-2.3c-3.2-1.3-6.3-2.8-9.2-4.8c-4.5-3.1-7.3-7.6-9.1-12.6
		c-1-2.7-1.8-5.4-2.2-8.2c-0.4-2.5-0.3-5,0.1-7.5c1.1-7.2,3.5-13.9,6.5-20.5c1.8-3.8,3.8-7.5,6.1-11c0.3-0.5-0.1-1.3-0.7-1.3
		c-1.7,0-3.3,0-5,0c-1.9,0-3.9,0.3-5.8-0.6c-0.6-0.3-1.6-0.3-2.2,0c-1.6,0.7-3.2,0.5-4.8,0.1c-1.1-0.3-2.4-0.2-3.6-0.2
		c-2.5,0.1-5,0.4-7.5,0.4c-1.3,0-2.6,0.3-4-0.1c-0.6-0.2-1.3-0.3-1.8-0.1c-2.1,0.7-4.2,0.6-6.3,0.3c-3-0.3-6,0-8.9,0.1
		c-2.9,0.1-5.7,0.2-8.6,0.1c-4.3-0.3-8.7,0.7-13-0.3c-3.6,0.6-7.2,0.1-10.7,0.3c-1.3,0.1-2.7,0.1-4.1,0.1c-1.1,0-1.6-0.4-1.8-1.5
		c-0.2-1-0.4-2.1-0.4-3.1c-0.1-6.9,0-13.8-0.1-20.7c0-1.8,0.6-3.4,0.2-5.3c-0.4-1.9-0.1-3.9-0.1-5.8c0-1.8-0.1-3.6-0.1-5.4
		c0-1.5,0.3-3,0.4-4.5c0-0.3,0.2-0.7,0.1-0.9c-1.2-2.1-0.1-4.4-0.4-6.6c-0.4-2.4-0.2-4.8-0.2-7.2c0-2.3,0-4.5,0-6.8
		c0-2.3,0-4.5,0-6.8c0-2.4-0.1-4.8,0-7.2c0-2.2,0.2-4.5,0.2-6.7c0-5.3-0.1-10.5-0.2-15.8c0-1,0-2.1,0.1-3.1c0-0.3,0.5-0.7,0.9-0.8
		c0.4-0.2,0.9-0.1,1.3-0.1c13.4,0.1,26.7-0.1,40.1,0c5.8,0,11.7,0,17.5,0.1c2.7,0,5.3-0.5,8-0.2c1.6,0.2,3.2,0.2,4.9,0.1
		c1.5-0.1,2.9-0.3,4.4-0.5c0.9-0.1,1.4,0.4,1.7,1.2c0.2,0.6,0.4,1.2,0.4,1.7c0.1,5,0.1,9.9,0.1,14.9c0,1.2-0.4,1.7-1.6,1.7
		c-6.9,0-13.8,0.1-20.7,0.1c-6.3,0-12.6,0-18.9,0c-0.1,0-0.3,0-0.4,0c-0.9,0.1-1.4,0.5-1.4,1.4c-0.1,4.5-0.2,8.9,0.4,13.4
		c0.1,0.7-0.1,1.5-0.1,2.2c0,1.2-0.3,2.4-0.1,3.5c0.6,2.5-0.1,3,3.4,3c2.7,0,5.3-0.4,8-0.1c2.7,0.2,5.4,0.2,8.1,0.2
		c2.7,0,5.4-0.1,8.1-0.1c2.7,0,5.4,0,8.1-0.1c0.5,0,0.9,0,1.4,0c0.9,0,1.4,0.4,1.4,1.4c0,2.9-0.2,5.7,0.1,8.6c0.3,2.7-0.3,5.3-0.1,8
		c0,0.6-0.4,1.1-1.1,1.2c-1.1,0.1-2.1,0.2-3.2,0.1c-3.7-0.2-7.4,0.3-11.2,0c-1.7-0.1-3.6,0.8-5.3,0.5c-1.6-0.3-3.2-0.7-4.8-0.6
		c-3.7,0.3-7.5-0.4-11.2,0.3c-1.1-0.5-1.3,0.3-1.4,1.1c-0.2,1.2-0.5,2.3-0.2,3.5c0.5,2.6,0.6,5.4,0.1,8.1c-0.2,1.2,0.3,2.4,0.1,3.5
		c-0.1,0.6-0.1,1.2-0.1,1.7c0.1,3,0.3,5.9,0.4,8.9c6.2-0.3,12.1-0.1,18.1-0.2c8.7,0,17.4-0.1,26.1-0.1c1.3,0,1.5-0.1,1.9-1.4
		c0.9-2.8,1.8-5.7,2.6-8.6c0.4-1.3,0.5-2.7,1-3.9c1.2-2.9,1.9-6,2.6-9c0.2-0.7,0.5-1.4,0.7-2.1c0.4-1.1,0.7-2.3,1-3.4
		c0.2-0.6,0.1-1.2,0.3-1.8c1.7-3.7,2-7.8,3.3-11.6c1.3-3.7,2.4-7.4,2.8-11.3c0-0.1,0-0.3,0.1-0.4c1.5-2,2-4.3,2.4-6.7
		c0.4-2.4,1.8-4.5,2.2-6.7c0.6-3.1,1.6-6,2.4-9.1c0.3-1.3,0.7-2.6,1.2-3.8c0.8-1.8,1.5-3.6,1.6-5.6c0-0.7,0.5-1.4,0.7-2.1
		c0.3-0.8,0.9-1.1,1.7-1.1c3,0,6,0,9,0c4.2,0,8.4,0.3,12.6-0.4c1.7-0.3,3.5-0.1,5.3,0c3.3,0.2,6.5,0.5,9.8,0c2-0.3,4.1,0.2,6.2,0.3
		c1.2,0.1,1.9,0.8,2.3,1.8c0.1,0.1,0.1,0.3,0.1,0.4c1.2,4.3,2.5,8.6,3.7,12.9c0.1,0.3,0.1,0.6,0.2,0.9c2.5,8,5,16,7.5,24
		c0.5,1.6,0.7,3.2,1.2,4.8c0.7,2.3,1.5,4.6,2.2,6.8c0.6,2,0.8,4.3,2,5.9c1.2,1.7,3.8,1.5,5.7,2.3c1.8,0.8,3.5,1.7,5.3,2.5
		c0.6,0.3,1.2-0.2,1.2-0.9c0-7.4,0.1-14.7,0.1-22.1c0-12.8-0.1-25.5-0.2-38.3c0-1.3,0.4-1.7,1.5-1.6c3.3,0.4,6.5-0.2,9.7-0.1
		c3.2,0.1,6.3-0.1,9.5,0c3.3,0.1,6.6-0.4,9.8,0.5c0.4,0.1,1,0.2,1.3,0c2-1,4.1-0.1,6.1-0.5c1.9-0.4,3.9-0.1,5.8-0.1
		c2.1,0,4.2-0.1,6.3,0c1.3,0,2.7,0.6,3.9,0.3c1.3-0.3,2.7-0.3,4-0.4c4.5-0.2,9,0.6,13.4,1.1c6.7,0.8,12.7,3.4,17.3,8.7
		c2.8,3.3,4.7,6.9,5.1,11.3c0.2,1.9,0.6,3.8,0.8,5.8c0.3,4-1,7.7-1,11.6c0,0.4-0.2,0.9-0.4,1.3c-0.7,1.3-1.4,2.6-2.2,3.9
		c-2,3.1-4.5,5.6-8,6.8c-1.3,0.5-2.6,0.8-3.8,1.2c-0.5,0.2-0.9,0.6-1.5,1.1c1.8,0.8,3.2,1.7,4.7,2.2c3.8,1.3,6.5,3.9,8.2,7.3
		c2.7,5.2,4.4,10.8,3.7,16.8c-0.2,1.7,0.4,3.2,0.3,4.9c-0.1,5.7-0.1,11.4,0,17.1c0,1.2,0.4,2.4,0.5,3.5c0.1,0.7,0.3,1.5,0.2,2.2
		c-0.1,0.5-0.7,0.9-1.1,1.3c-0.2,0.2-0.6,0.1-0.9,0.1c-10.7,0-21.3,0.1-32,0.1c-0.6,0-1.2,0-1.8-0.1c-0.7,0-1.1-0.5-1.1-1.2
		c-0.1-1.2,0-2.4,0-3.6c0-7.7,0-15.3-0.1-23c0-3.6-0.6-7.1-1.5-10.6c-0.6-2.4-2-4-4-5.1c-2.7-1.5-5.6-2-8.6-2.4
		c-1.3-0.2-2.7-0.2-4.1-0.1c-1.3,0-2.9-0.6-3.8,0.6c-0.7,1-0.5,2.3,0,3.4c-0.7,1.7,0,3.5-0.1,5.2c-0.1,1.8-0.2,3.6-0.2,5.4
		c0.2,3.9,0.2,7.7-0.1,11.6c-0.1,1.5,0.8,2.8,0.1,4.4c-0.6,1.3-0.2,3,0.4,4.4c0.1,0.3,0.1,0.6,0,0.9c-1,2.7-0.4,5.3,0,8
		c0,0.3,0,0.6-0.1,0.9c0,0.7-0.5,1.1-1.1,1.2c-1.6,0.1-3.3,0.1-4.9,0.1c-5.9,0-11.7,0-17.6,0.1c-1.5,0-2.9,0.2-4.4,0.2
		c-1.6,0-3.3-0.2-4.9-0.2c-1.5,0-3,0.1-4.5,0.1c-1.3,0-2.3,0.3-2.9,1.6c-0.3,0.7-0.9,1.2-1.2,1.9c-3.2,6.6-7.3,12.7-11.1,19
		c-2.5,4.2-5.1,8.5-7.6,12.7c-1,1.6-2.4,2.7-4,3.6c-1.6,0.8-3.3,1.5-5,2.1c-0.8,0.3-1.8,0.4-2.6,0.2c-2.2-0.7-4.8-0.9-6.1-3.4
		c-1.6-3.1-2.7-6.2-1.7-9.9c1.4-4.7,3.6-8.9,6.4-12.8c1-1.3,2-2.7,2.8-4.1c2.2-3.4,4.3-6.8,6.4-10.2c-0.2-0.3-0.2-0.5-0.3-0.5
		c-1.5-0.1-2.9-0.2-4.4-0.3c-0.9-0.1-1.8,0.8-2.5-0.1c-0.5-0.7-0.8-1.6-1-2.5c-0.5-1.9-1-3.8-1.4-5.6c-0.7-3.2-1.3-6.4-2-9.6
		c-0.3-1.3-0.8-1.9-2.1-1.9c-1.7-0.1-3.3,0-5-0.1c-2.6-0.3-4.7,0.8-6.5,2.5c-1.2,1.1-2.5,2.2-3.7,3.3c-3.4,3.4-7.3,6.2-10.5,9.8
		c-7.3,8.2-14.3,16.6-18.8,26.7c-1.9,4.3-3.4,8.6-3.3,13.4c0,0.2,0,0.3,0,0.4c-1.2,5.7,2.3,8.6,6.4,11.1c2.2,1.3,4.8,1.6,7.3,2
		c2.8,0.4,5.7,0.9,8.5,0.6c3.9-0.4,7.8-0.1,11.7-0.6c5.1-0.6,10-1.5,14.9-3c2.9-0.9,5.8-1.4,8.7-2c0.6-0.1,1.2,0,1.8,0.1
		c0.4,0.1,0.8,0.3,1.3,0.4c4.7,0.7,7.4,3.5,8.5,8.1c0.4,1.5,0.4,2.8-0.1,4.4c-0.5,1.4-0.9,2.9-1.8,4.1c-1.3,1.7-2.8,3.1-5,3.6
		c-3.3,0.8-6.6,1.8-10,2.5c-3.1,0.7-6.2,1.3-9.3,1.6c-4.1,0.5-7.8,1.9-11.3,4c-3.6,2.2-7.1,4.4-10,7.6c-0.2,0.2-0.4,0.5-0.5,0.7
		c0,0.2,0.2,0.6,0.3,0.6c1.6-0.1,3.3-0.2,4.9-0.5c5.9-1.2,11.4-3.5,17-5.6c6.9-2.6,13.7-5.4,20.2-8.7c7.2-3.6,14.2-7.8,21.2-11.9
		c3.1-1.8,6.1-3.8,9.1-5.8c1.9-1.2,3.5-2.8,5.2-4.3c5.3-4.6,11-8.8,18.1-10.5c1.5-0.4,2.9-0.6,4.4,0.1c0.8,0.4,1.7,0.5,2.5,0.9
		c1.8,0.7,3,1.9,3.7,3.7c0.4,1.1,0.8,2.2,1.2,3.4c0.1,0.4,0.2,0.9,0,1.3c-0.8,2.4-1.3,4.9-2.7,7.1c-1.7,2.6-3.6,4.7-6.4,6.1
		c-2.3,1.2-4.3,2.7-6.4,4.1c-1.6,1.1-2.8,2.7-3.8,4.4c-0.3,0.7,0.2,1.6,0.9,1.7c1.7,0.2,3.2,0.1,4.7-1c2.8-2,5.7-3.9,8.5-5.9
		c0.7-0.5,1.5-1,2.3-1.4c2.2-1.3,4.5-1.4,6.8-0.2c0.9,0.5,1.9,1,2.9,1.3c3,1.1,4.1,3.4,4.3,6.3c0.1,1.8,0.2,3.7-0.3,5.4
		c-0.8,2.9-0.6,5.9-1.5,8.8c-0.8,2.7-1.2,5.6-1.9,8.3c-1.2,4.9-2.4,9.9-3.7,14.8c-1.5,5.6-3.2,11.2-4.7,16.8c-0.7,2.4-1,4.9-2.1,7.2
		c0,0.1,0.1,0.2,0.2,0.4c3.9-3.2,7.8-6.4,11.8-9.6c1.8-1.4,3.6-2.7,5.4-4.1c0.8-0.6,1.6-1.3,2.4-2c1.4-1.1,2.9-2.2,4.3-3.3
		c2.2-1.6,4.4-3.1,6.5-4.8c9-7.3,18.5-13.8,28.2-20.1c5.4-3.6,10.6-7.4,15.9-10.9c7.6-5,15.3-9.9,23-14.9c4.4-2.9,8.8-5.7,13.1-8.7
		c0.7-0.5,1.4-1.1,1.9-1.8c4.6-5.7,10.6-9.2,17.4-11.5c1.7-0.6,3.4-1,5.1-1.7c4.3-1.7,7.9,0.3,11.4,2.3c0.4,0.2,0.7,0.6,0.9,1
		c1.4,2.2,2.5,4.6,2.2,7.2c-0.4,3.5-1.6,6.5-4.8,8.7c-3,2.1-6.3,3.5-9.3,5.3c-2.2,1.3-4.4,2.7-6.7,3.6c-3.1,1.3-4,3.9-4.5,6.7
		c-0.4,2.7-0.6,5.4-0.8,8c0,0.3,0.1,0.6,0.1,0.9c0.1,0.7,1,1.4,1.7,1.1c2.2-0.9,4.2-2.2,6-3.8c4.8-4.2,8.7-9.1,12.3-14.3
		c2.1-3,5.2-4.6,8.6-5.1c2.9-0.5,5.9-0.9,8.9-0.6c1.7,0.2,3.5,0.2,5.3-0.1c0.9-0.2,1.8-0.1,2.7,0c6.6,1,13.2,0.6,19.8,0.4
		c3.3-0.1,6.5-0.9,9.8-1.3c2.4-0.3,4.8-0.3,7.1-1c1.1-0.4,2.4-0.2,3.6-0.5c5.1-1.3,10.2-2.5,15.1-4.1c5-1.6,9.8-3.7,14.8-5.5
		c4.7-1.6,8.9-4.4,13.3-6.4c1.8-0.8,3.5-1.7,5.4-2.2c4-1.2,7.7,0,10.4,2.7c2.7,2.6,3.5,6.2,2.6,10c-0.1,0.6-0.4,1.1-0.6,1.7
		c-0.7,2.9-2.5,4.6-5.3,5.5c-7.8,2.6-15.6,5.3-23.4,8c-7.1,2.4-14.3,4.3-21.5,6.3c-6.6,1.8-13.3,3.7-20.1,4.9
		c-6.2,1.1-12.4,2.5-18.7,2.2c-2.8-0.1-5.6,0.7-8.5,0.5c-1.5-0.1-3,0.1-4.4-0.3c-1.5-0.4-2.9,0.5-4.4,0c-1.1-0.4-2.4-0.2-3.6-0.2
		c-3.6-0.1-4-0.2-6.1,2.8c-3.2,4.7-8,7.7-11.9,11.6c-5.4,3.5-11,6.8-17.4,8c-3.5,0.7-6.8-0.4-10-1.8c-4.9-2.2-7.4-6.4-8.9-11.3
		c-0.8-2.6-1.4-5.2-2-7.8c-0.9-0.4-1.4,0.4-1.9,0.7c-3.3,2-6.7,4-10,6.1c-2.8,1.8-5.2,4-8.1,5.6c-6.2,3.6-12.3,7.5-18.2,11.6
		c-7.6,5.1-15,10.5-22.4,15.9c-5,3.6-9.6,7.7-14.6,11.3c-2.5,1.8-4.8,4.1-7.2,6c-3.6,2.9-7.1,5.9-10.6,9c-3.8,3.4-7.4,7-11.1,10.5
		c-3.4,3.4-6.8,6.8-10.2,10.2c-2.1,2.1-4.2,4.3-6.1,6.6c-0.8,0.9-1.3,2-1.8,3.1c-2,4.4-4,8.7-5.9,13.1c-3.4,8.1-7.4,16-11.1,24
		c-1.4,3-3,5.9-4.6,8.8c-2.4,4.5-7.1,6.5-12.1,5.3c-2.2-0.5-4.3-1.4-6.3-2.2c-3.3-1.3-4.4-3.9-4.6-7.1c-0.2-3,0.5-5.9,1.1-8.8
		c1.5-6.8,3.9-13.3,7.3-19.3c3.8-6.8,7.8-13.4,12.9-19.4c3.4-4,6.6-8.1,10.3-11.9c1.3-1.3,2.1-2.9,2.7-4.6
		c3.1-8.7,6.5-17.4,9.2-26.3c1.9-6.4,4-12.8,5.5-19.4c1.1-4.7,2.4-9.3,3.6-13.9c0.2-0.7,0.4-1.5,0.5-2.2c0.5-3.7,0.3-3.9-3.4-3.1
		c-2.1,0.5-4.1,0.4-6.2-0.1c-2-0.5-4-1.1-6-1.9c-3.8-1.5-6.6-4.1-8.5-7.7c-0.3-0.7-0.7-1.3-1.1-2c-0.4-0.5-1-0.8-1.6-0.5
		c-2.3,1-4.7,1.9-7,3.1c-7,3.7-14.2,7.1-21.6,9.9c-3.1,1.2-6.1,2.6-9.1,3.9c-0.7,0.3-1.4,0.7-2.1,0.9c-4.3,0.9-8.3,2.7-12.4,4
		c-3.1,1-6.3,1.9-9.6,2.5c-3.8,0.7-7.7,1.4-11.6,1.1c-4.6-0.3-8.8-1.8-12.7-4.2c-2.4-1.5-3.5-4.1-4.3-6.7c-1.4-4.8-1.2-7,0.8-11.8
		C324.3,256.9,326,253.5,329,250.9z M432.2,330.1c0.3-0.8,0.7-1.6,1-2.5c1.1-2.8,2.3-5.6,3.1-8.4c1.1-3.6,2.4-7.1,3.6-10.6
		c0.4-1,0.7-2,1-3c0.5-1.7,0.9-3.5,1.4-5.2c1.3-4.4,2.9-8.8,4-13.3c2.4-9.6,4.9-19.1,6.7-28.8c0.5-2.9,1-5.9,1.5-8.9
		c0.1-0.6,0-1.2,0-1.8c0-0.3-0.2-0.7-0.4-0.8c-1.1-0.5-2.1-1.1-3.3-1.4c-0.4-0.1-1.1,0.4-1.5,0.7c-1.1,0.8-2.2,1.6-3.2,2.4
		c-3.8,3.1-8.2,5-12.9,6.1c-1.9,0.5-3.9,0.4-5.7-0.8c-3.2-2.1-4.6-6.9-2.8-10.4c1.2-2.4,2.9-4.6,4.9-6.4c0.4-0.4,0.9-0.9,1.4-1.1
		c2.9-1.1,5-3.2,7.5-4.8c1.9-1.1,2.9-3,3.9-4.8c0.7-1.2,1-2.6,0.1-3.9c-0.7-1-2.3-1.3-4.1-0.8c-0.3,0.1-0.5,0.3-0.8,0.4
		c-4.5,1.5-8.4,4.2-11.6,7.5c-2.7,2.7-5.7,4.9-8.9,6.8c-7,4.4-14.2,8.4-21.3,12.6c-1.6,0.9-3.1,1.9-4.7,2.6
		c-6.8,3.1-13.7,6.2-20.6,9.1c-7.7,3.3-15.6,6.2-23.9,8c-3.7,0.8-7.4,1.1-11.1,0.7c-4-0.5-4.4-2.4-3.6-5.6c0.2-0.7,0.5-1.4,1-2
		c1.6-2.4,3.3-4.7,5.6-6.4c3.5-2.6,6.8-5.4,10.9-7.1c1.1-0.5,2-1.3,3.1-1.8c2.6-1.1,5.3-2.1,7.9-3.2c4.2,0,8.3-1.3,12.4-2
		c2.4-0.4,4.7-1.1,7-1.5c2.2-0.4,3.2-2,4.1-3.8c0.2-0.3,0.1-0.9-0.1-1.3c-0.4-1.2-1.3-2-2.3-2.7c-0.8-0.6-1.7-0.4-2.6-0.2
		c-1.4,0.2-3,0.2-4.4,0.5c-3.8,0.9-7.6,1.9-11.3,2.8c-0.7,0.2-1.4,0.6-2.1,0.7c-3.7,0.4-7.5,0.7-11.2,0.9c-3.2,0.2-6.3,0-9.5,0.1
		c-4.6,0.1-8.9-1-13.3-2.1c-1.9-0.5-3.7-1.4-5.3-2.4c-3.5-2.2-6.1-5.3-7.3-9.4c-0.9-3.1-0.8-6.3-0.4-9.4c0.5-3.7,1.7-7.3,3-10.8
		c3.3-8.6,8.5-16.1,14-23.4c2.1-2.8,4.4-5.3,6.8-7.8c3.6-3.7,7.1-7.4,11-10.7c4.2-3.6,8.7-6.8,13.5-9.8c4.5-2.8,9.2-5.1,14.2-6.6
		c2.4-0.7,4.9-1.5,7.5-1.5c2.6,0,5.1-0.1,7.7,0.1c1.3,0.1,2.7,0.3,4,0.7c6.7,1.9,8.1,4.4,7.2,11.7c0,0.1,0,0.3-0.1,0.4
		c-1.4,3.9-2.7,7.9-4.6,11.7c-4,7.7-8.8,15-13.5,22.3c-2.9,4.6-6,9-9,13.5c-1.5,2.1-2.5,4.5-3.1,6.9c-0.3,1.2-0.2,2.4,0.5,3.5
		c0.9,1.4,2.5,1.8,3.9,1c2.5-1.5,4.1-3.9,5.6-6.3c6.1-10.3,12.6-20.4,18.1-31.1c1.6-3.1,3.2-6.1,4.6-9.2c0.9-2,1.5-4.3,2.4-6.3
		c2.1-4.4,2-9,1.6-13.7c0-0.6-0.3-1.1-0.6-1.7c-1.8-3.9-4.6-6.6-8.8-7.9c-3.2-0.9-6.4-1.7-9.7-1.7c-2.6,0-5.1,0.2-7.6,0.5
		c-7.4,0.9-14.3,3.4-20.5,7.4c-3.8,2.4-7.5,5-11.1,7.7c-5,3.7-9.5,7.8-13.8,12.2c-3.8,4-7.5,8.1-10.8,12.6
		c-3.3,4.5-6.6,8.9-9.5,13.7c-3.9,6.5-6.6,13.4-8.2,20.8c-0.9,3.8-1,7.9-0.2,11.6c1.7,7.4,6,13.1,13,16.3c5.6,2.6,11.5,4.4,17.8,4.4
		c0.9,0,1.9-0.1,3.1,0.5c-1.1,0.8-1.8,1.5-2.7,2.1c-4,2.7-7.3,6.2-10.3,9.9c-2.3,2.8-2.8,6.2-3.6,9.6c-0.1,0.4,0.1,0.9,0.2,1.3
		c0.6,2.9,2.4,4.7,5.1,5.9c4.6,2.1,9.5,1.7,14.2,1c5-0.7,9.9-2.2,14.8-3.9c4.8-1.7,9.6-3.2,14.3-5.3c4.5-2,9.2-3.7,13.7-5.7
		c9.1-4.2,18.1-8.6,26.9-13.5c0.1-0.1,0.3,0,0.7,0c0.3,1,0.8,2.2,0.9,3.3c0.4,3.6,2.2,6.5,4.8,8.9c3.4,3.1,7.4,4.6,12,3.6
		c3.2-0.7,6.4-1.6,9.3-3.2c0.9-0.5,1.9-1,2.8-1.4c0.6-0.3,1.1,0.2,0.9,0.9c-0.2,1.5-0.5,2.9-0.8,4.4c-1.1,5.9-2.1,11.8-3.7,17.6
		c-1.4,5.2-2.7,10.4-4.1,15.6c-0.8,2.9-1.5,5.8-2.4,8.6c-1,3-2.2,5.9-3.1,8.9c-1.3,4.6-3.1,9-4.7,13.6c-1.4,4.1-2.7,8.2-4.7,12.2
		c-0.6,1.2-1.3,2.4-2.2,3.4c-2.8,3.1-5.7,6.2-8.4,9.4c-2.5,3-5.1,5.9-7.1,9.3c-3.1,5.1-6.9,9.8-8.9,15.5c-3.5,6.1-4.7,12.9-5.7,19.7
		c-0.1,1,0.3,1.8,1.2,2.3c1.7,1,3.5,1.7,5.5,1.8c1.8,0.2,3.3-0.4,4.1-2.1c0.5-0.9,1.1-1.8,1.6-2.7c3.5-7.2,7.4-14.3,10.6-21.8
		c1.1-2.6,2.6-5.1,3.7-7.7c1.9-4.4,3.6-8.9,5.6-13.2c1-2.3,2.3-4.5,4-6.4c3.8-4.4,8.4-8.2,12-12.8c3.8-2.7,6.5-6.6,10.1-9.5
		c3.4-2.7,6.4-5.9,9.8-8.6c3.6-3,7.1-5.9,10.7-8.9c3.1-2.6,6-5.4,9.4-7.6c3.1-2.1,6-4.4,9-6.7c4.1-3,8.1-6.2,12.3-9
		c11-7.3,22-14.5,33.1-21.7c2.1-1.4,4.4-2.6,6.5-4c4.8-3,9.7-6,14.5-8.9c1-0.6,2.1-1.1,3.2-1.6c0.1-0.1,0.6,0.2,0.7,0.4
		c0.1,0.7,0.1,1.5,0.1,2.2c0,3.4-0.4,6.8-0.2,10.3c0.2,2.8,1.2,5.2,2.4,7.7c2.1,4.2,7.6,6.7,12.7,5c6.7-2.3,12.4-5.9,17.3-11
		c1.3-1.4,2.9-2.6,4.3-4c0.4-0.4,0.9-0.8,1.2-1.3c1.3-1.6,2.7-3.2,3.9-4.9c0.5-0.7,1.1-1.1,1.9-1c4.1,0.1,8.1,0.2,12.2,0.5
		c3.4,0.2,6.8,0.6,10.3,0.3c2.5-0.2,5.1-0.4,7.6-0.6c0.9-0.1,1.8,0,2.7-0.2c5.5-0.9,11-1.6,16.4-2.8c6.7-1.5,13.4-3.3,20-5.1
		c4-1.1,8-2.7,12.1-3.5c3.4-0.7,6.6-2,9.7-3.3c0.5-0.2,1.1-0.3,1.7-0.5c4.1-1.4,8.2-2.8,12.3-4.2c1-0.3,2-0.7,2.9-1.2
		c2.1-1.2,2.8-3.6,1.7-5.4c-1.2-2-3.7-2.8-5.8-1.8c-1.4,0.6-2.7,1.4-4,2.1c-3.1,1.6-6.1,3.3-9.3,4.6c-3.3,1.4-6.4,3.1-9.9,4.1
		c-1.7,0.5-3.4,1.1-5.1,1.7c-5.2,1.8-10.5,3.5-15.9,4.7c-4.4,1-8.8,1.8-13.2,2.7c-1.1,0.2-2.2,0.7-3.5,0.6c-2.7-0.1-5.4,0-8,0.6
		c-4.3,0.9-8.7,0.8-13,0.4c-7.2-0.7-14.4-0.3-21.6-0.4c-2.9,0-5.2,1.2-6.7,3.7c-0.2,0.4-0.5,0.8-0.8,1.1c-2.1,2.7-4.2,5.5-6.4,8.1
		c-3.1,3.8-7,6.6-11.1,9c-1.8,1.1-3.8,1.7-5.9,2.1c-2.8,0.5-4.6-0.2-6.1-3.4c-0.8-1.7-1.2-3.7-1.2-5.7c0-2.6,0.6-5.1,0.8-7.6
		c0.3-3.1,1.5-5.8,2.4-8.6c0.4-1.2,1.2-2,2.4-2.6c1.5-0.7,2.9-1.5,4.4-2.2c2.8-1.4,5.6-2.8,8.3-4.4c2.1-1.2,4.2-2.4,6.1-3.8
		c2.8-2,2.3-5.9-0.9-7.2c-0.8-0.3-1.8-0.4-2.6-0.3c-1,0.1-2,0.5-3,0.8c-6.9,1.8-12.6,5.4-17.1,11c-0.5,0.7-1.3,1.3-2,1.8
		c-2.6,1.8-5.2,3.5-7.9,5.2c-9.8,6.4-19.6,12.7-29.4,19.2c-5.1,3.4-10.2,6.9-15.3,10.3c-3.2,2.2-6.6,4.2-9.7,6.5
		c-7.4,5.5-15,10.9-22.4,16.6c-8.4,6.6-17,12.8-25,19.8c-4.4,3.9-8.9,7.6-13.3,11.4c-2.3,1.9-4.6,3.9-6.9,5.8
		C432.7,330.2,432.5,330.2,432.2,330.1z M447.4,105.2C447.4,105.2,447.4,105.2,447.4,105.2c0,1.9,0,3.9,0,5.8c0,1.9,0,3.9,0.1,5.8
		c0.1,1.6,0.3,1.9,1.8,1.9c3.1,0,6.3,0,9.4-0.2c2.1-0.1,4.1-0.9,5.9-1.7c0.9-0.4,1.8-1.2,2.3-2.1c1-1.9,2.2-3.8,2.3-6.2
		c0.1-2.7,0-5.3-0.1-8c-0.1-4.2-2.2-8.1-8.3-8.9c-0.3,0-0.6,0-0.9,0c-3.7,0-7.5,0-11.2,0c-0.8,0-1.3,0.6-1.3,1.5
		C447.4,97.1,447.4,101.1,447.4,105.2z M352,144.1c1.7,0.4,3.7-0.6,5.7-1.7c2.7-1.6,5.5-3.1,8.3-4.6c0.9-0.5,1.4-1.1,1.2-2.1
		c-0.5-3-0.7-6-1.5-8.8c-1.4-4.5-2.1-9-3.1-13.5c-1.3-6-2.5-12-3.8-18c0-0.2-0.4-0.5-0.5-0.4c-0.3,0.1-0.6,0.3-0.7,0.5
		c-0.3,1.2-0.4,2.4-0.7,3.5c-1.4,5.8-2.5,11.6-3.6,17.5c-1.1,6.2-2.3,12.3-3.8,18.4c-0.6,2.6-1,5.3-1.4,7.9
		c-0.1,0.7,0.6,1.4,1.4,1.4C350.1,144.1,350.7,144.1,352,144.1z"/>
	<path class="st0" d="M182.8,160.5c0-6.3,0-12.6,0-18.9c0-0.7,0-1.5-0.2-2.2c-0.1-0.4-0.5-0.8-0.9-0.9c-0.7-0.2-1.5-0.5-2.2-0.4
		c-1.8,0.5-3.4-0.5-5.3,0.2c-1.4,0.5-3.2-0.4-4.8,0.1c-1,0.3-2.1,0-3.1-0.1c-0.3,0-0.6-0.3-0.9-0.3c-1.9,0.2-3.8,0.4-5.7,0.6
		c-1.1,1.5-0.2,3.2-0.5,4.8c-0.3,1.8,0.9,3.4,0.4,5.3c-0.5,1.8-0.2,3.9-0.2,5.8c0,1.8-0.1,3.6-0.1,5.4c0,1.9,0,3.9,0.1,5.8
		c0,1.8,0,3.6,0,5.4c0,3.4,0,6.9,0,10.3c0,0.7-0.3,1.1-1,1.2c-0.9,0.1-1.8,0.4-2.6,0.4c-3.3-0.1-6.6-0.3-9.9-0.3
		c-2.1,0-4.2,0-6.2,0.3c-2.7,0.4-5.3,0.4-8-0.1c-2.2-0.4-4.5-0.2-6.7-0.2c-0.4,0-0.9,0-1.3-0.1c-0.7-0.1-1.1-0.6-1.1-1.2
		c0.3-3.1-0.8-6.3,0.6-9.3c0.1-0.2-0.1-0.6-0.1-0.9c-0.2-1.9-0.5-3.8-0.4-5.7c0-1.8,0-3.5,0.1-5.2c0.1-2.1-0.4-4.1-0.2-6.2
		c0.2-2.1,0-4.2,0-6.3c0-1.8-0.4-3.6,0.5-5.3c0.3-0.6,0-1.4-0.1-2.2c-0.5-3.4-0.3-6.8-0.3-10.3c0-5.4,0-10.8-0.1-16.2
		c0-7.8,0-15.6,0-23.4c0-4.8-0.1-9.6-0.1-14.4c0-1.1,0.6-1.6,1.8-1.4c1.2,0.3,2.3,0.5,3.5,0c0.7-0.3,1.5-0.2,2.2-0.2
		c4.2,0,8.4,0,12.6,0.2c1.5,0.1,3-0.1,4.4-0.1c1.3,0,2.5,0.2,3.9,0c2.2-0.3,4.5-0.1,6.7,0c0.7,0,1.4,0.7,1.5,1.4
		c0.1,0.6,0.2,1.2,0.1,1.8c-0.6,3.7-0.8,7.4,0,11.1c-0.6,2.1,0,4.1,0,6.2c0,2,0.1,3.9,0.1,5.9c0,4.2,0,8.4,0,12.6
		c0,0.7,0.2,1.5,0.2,2.2c0.1,0.7,0.5,1.1,1.2,1.1c2.6,0.1,5.1,0.1,7.7,0.1c4.4,0,8.7,0,13.1-0.1c1.1,0,1.7-0.7,1.4-1.8
		c-0.6-2-0.4-4.1-0.4-6.2c0-2.1-0.3-4.2-0.2-6.3c0.1-2.5,0.4-5.1,0.5-7.6c0.1-1.8,0.2-3.6-0.2-5.4c-0.3-1.7-0.5-3.2,0-4.9
		c0.2-0.7,0-1.5-0.1-2.2c-0.3-1.5-0.4-2.9,0-4.4c0.2-0.7-0.1-1.4-0.2-2.1c-0.1-1,0.3-1.5,1.2-1.5c1.1,0,2.1,0,3.2,0
		c6.9,0,13.8,0,20.7,0c0.8,0,1.6-0.2,2.2,0.1c2.7,1.2,5.3,0.7,7.9,0.1c1.1-0.3,1.7,0.3,1.7,1.4c0,2.1,0,4.2,0,6.3
		c0,1.9,0,3.9,0.3,5.8c0.3,1.7-0.1,3.5-0.1,5.3c0,2.5-0.3,5-0.2,7.6c0.1,2.7-0.5,5.4,0.4,8c-0.6,2.1-0.4,4.2-0.3,6.2
		c0.1,1.9,0.2,3.8,0,5.7c-0.2,1.9,0.1,3.9,0.2,5.8c0,1,0,2,0,3c0,1.3-0.1,2.7-0.1,4c0,1.2,1,2.4,0.4,3.5c-0.8,1.4,0.7,2.7,0.1,3.9
		c-0.7,1.2,0.5,2.4,0,3.5c-0.6,1.1,0.4,2,0.1,3c-0.3,0.9-0.2,1.7,0,2.6c0.2,1.2,0.2,2.4,0,3.6c-0.7,3.7-0.6,7.5-0.3,11.2
		c0.1,1.3,0.1,2.7,0,4c-0.5,4,0.3,8-0.2,12c-0.2,1.2-0.5,1.6-1.6,1.6c-4.5,0-9,0.1-13.5,0.1c-5.1,0-10.2,0-15.3,0
		c-0.5,0-0.9,0.1-1.3,0.1c-5-0.6-4.4,1-4.5-4.8C182.8,172.2,182.8,166.3,182.8,160.5z"/>
	<path class="st0" d="M575.5,162.5c0,6,0,12,0,18c0,1-0.5,1.4-1.4,1.3c-4.2-0.7-8.3,0.2-12.5,0c-1.8-0.1-3.6,0.2-5.4-0.4
		c-0.5-0.2-1.3-0.3-1.8-0.1c-2.2,1-4.4,0.1-6.6,0.2c-2.2,0.1-4.5,0.2-6.7,0.2c-1.5,0-1.4-0.1-2-1.8c-0.6-1.6-0.7-3.3-0.3-4.9
		c0.5-1.9-0.4-3.9,0.4-5.7c0.1-0.2,0-0.6,0-0.9c-0.2-1.2-0.6-2.3-0.6-3.5c0-5.3,0-10.5,0.1-15.8c0-0.7,0.1-1.4,0.1-2.1
		c-0.3-4-0.6-8.1,0.2-12.1c0.1-0.4,0.2-0.9,0.1-1.3c-1-4.2-0.4-8.4-0.5-12.5c-0.1-7-0.1-14.1-0.1-21.1c0-1.8,0-3.6,0-5.4
		c0-1.4-1.2-2.8-2.4-2.5c-4.5,1.1-9,0-13.5,0.4c-4.5,0.3-9,0.1-13.5,0.1c-0.6,0-1.2,0-1.8,0c-0.8,0-1.3-0.7-1.4-1.5
		c0-0.3,0-0.6,0-0.9c0-4.7-0.1-9.3,0-14c0-2.6,0-2.6,2.4-2.6c3.8,0,7.5,0,11.3-0.1c3-0.1,6,0.6,8.9-0.5c0.3-0.1,0.6-0.1,0.9,0
		c3.5,1,7.2,0.4,10.7,0.6c3.4,0.1,6.9-0.3,10.3-0.4c0.4,0,0.9,0.2,1.3,0.2c2.7,0.1,5.4,0.4,8-0.2c2.6,0.9,5.4,0.7,8,0.2
		c2.4-0.4,4.7,0.5,7.1-0.1c2.1-0.5,4.4-0.3,6.7-0.3c1.9,0,3.9,0,5.8,0.2c3.6,0.5,7.1,0.5,10.7,0.1c1.6-0.2,3.2-0.8,4.8,0.1
		c1.1-0.4,2.5-1,3.4-0.2c1.3,1,0.6,2.8,0.7,4.2c0.1,1.8-0.1,3.6,0,5.4c0,1.6-0.2,3.3,0.6,4.9c0.2,0.5,0.2,1.2,0.1,1.8
		c-0.5,2.8-0.9,3.3-3.5,3c-2.5-0.3-5,0-7.5,0c-1.5,0-3-0.5-4.4-0.3c-1.5,0.1-2.9,0.4-4.4,0.1c-1.2-0.2-2.6,0.7-3.9-0.1
		c-1.8,0.7-3.5,0.3-5.3-0.2c-0.4-0.1-0.9,0-1.3,0c-2.1,0-2.7,0.6-2.7,2.6c0,1-0.1,2.1,0.2,3.1c0.5,2,0.5,3.8-0.1,5.8
		c-0.6,1.9,0.7,3.8,0,5.7c1,2.9-0.3,5.9,0.3,8.8c-1,1.5,0.5,3.2-0.3,4.8c0.9,4.2-0.5,8.5,0.4,12.7c0.1,0.4,0.1,0.9,0,1.3
		c-0.7,2.6,0,5.3-0.1,7.9c-0.1,4.3,0.5,8.6,0.2,12.9C575.4,159.2,575.5,160.8,575.5,162.5C575.5,162.5,575.5,162.5,575.5,162.5z"/>
	<path class="st0" d="M399.9,389c-0.1-2.6,0.9-4.9,2-7.1c1-2.2,2-4.3,3.2-6.4c1.2-2.2,2.6-4.3,4-6.5c0.1,0.3,0.4,0.6,0.3,0.8
		C406.9,376.5,403.1,382.7,399.9,389z"/>
</g>
</svg>
