<?xml version="1.0" encoding="utf-8"?>
<!-- Generator: Adobe Illustrator 24.2.1, SVG Export Plug-In . SVG Version: 6.00 Build 0)  -->
<svg version="1.1" id="Layer_1" xmlns="http://www.w3.org/2000/svg" xmlns:xlink="http://www.w3.org/1999/xlink" x="0px" y="0px"
	 viewBox="0 0 720 439.2" style="enable-background:new 0 0 720 439.2;" xml:space="preserve">
<style type="text/css">
	.st0{fill:#FFFFFF;}
</style>
<g>
	<g>
		<g>
			<path class="st0" d="M0.2,28.4h5.1c0.7,7.1,5,10.7,12.9,10.7c5.8,0,9.9-2.6,9.9-7.8c0-5.7-5-7.1-12.5-8.7C8.4,21,2.1,18.9,2.1,11
				c0-6.9,5.7-11,14.2-11C26.7,0,31,5.3,32.1,13h-5c-0.8-6-4.6-8.9-10.7-8.9C10.7,4.1,7,6.5,7,10.8c0,4.7,4.7,6.1,10.9,7.4
				c8.1,1.6,15.5,3.6,15.5,13C33.4,39,27,43.4,18,43.4C6.3,43.4,0.7,36.9,0.2,28.4z"/>
			<path class="st0" d="M51.2,0.8h5.9l15.4,41.8h-5.7l-4.4-12.7H45.7l-4.5,12.7h-5.4L51.2,0.8z M47.2,25.6h13.7l-4.8-14
				c-0.8-2.3-1.9-5.9-1.9-5.9h-0.1c0,0-1.1,3.5-1.9,5.9L47.2,25.6z"/>
			<path class="st0" d="M73.8,28.4h5.1c0.7,7.1,5,10.7,12.9,10.7c5.8,0,9.9-2.6,9.9-7.8c0-5.7-5-7.1-12.5-8.7
				C81.9,21,75.6,18.9,75.6,11c0-6.9,5.7-11,14.2-11c10.5,0,14.8,5.3,15.8,13h-5C99.8,7,96,4.1,89.9,4.1c-5.7,0-9.4,2.4-9.4,6.7
				c0,4.7,4.7,6.1,10.9,7.4c8.1,1.6,15.5,3.6,15.5,13c0,7.8-6.4,12.2-15.4,12.2C79.9,43.4,74.3,36.9,73.8,28.4z"/>
			<path class="st0" d="M110.4,28.4h5.1c0.7,7.1,5,10.7,12.9,10.7c5.8,0,9.9-2.6,9.9-7.8c0-5.7-5-7.1-12.5-8.7
				c-7.4-1.6-13.7-3.7-13.7-11.6c0-6.9,5.7-11,14.2-11c10.5,0,14.8,5.3,15.8,13h-5c-0.8-6-4.6-8.9-10.7-8.9c-5.7,0-9.4,2.4-9.4,6.7
				c0,4.7,4.7,6.1,10.9,7.4c8.1,1.6,15.5,3.6,15.5,13c0,7.8-6.4,12.2-15.4,12.2C116.4,43.4,110.8,36.9,110.4,28.4z"/>
			<path class="st0" d="M159,24.9L143.9,0.8h5.8l12,19.9h0.1L174,0.8h5.6L164.3,25v17.6H159V24.9z"/>
		</g>
		<g>
			<path class="st0" d="M619,22.5c0-13,6.1-20.9,15.6-20.9s15.5,7.8,15.5,20.9c0,12.7-5.5,20.9-15.5,20.9
				C624.7,43.5,619,35.3,619,22.5z M645,22.5c0-10.2-3.4-16.7-10.4-16.7c-7.1,0-10.5,6.4-10.5,16.7c0,10.2,3.4,16.6,10.5,16.6
				C641.8,39.2,645,32.9,645,22.5z"/>
			<path class="st0" d="M655.3,22.5c0-13,6.1-20.9,15.6-20.9s15.5,7.8,15.5,20.9c0,12.7-5.5,20.9-15.5,20.9
				C660.9,43.5,655.3,35.3,655.3,22.5z M681.3,22.5c0-10.2-3.4-16.7-10.4-16.7c-7.1,0-10.5,6.4-10.5,16.7c0,10.2,3.4,16.6,10.5,16.6
				C678,39.2,681.3,32.9,681.3,22.5z"/>
			<path class="st0" d="M691.4,31.7h5c0.4,4.4,3.4,7.6,8.8,7.6c3,0,5.2-0.9,6.8-2.6c2.4-2.6,3.3-7.1,3.6-13h-0.1
				c-2.6,3.2-6.3,5.1-11,5.1c-7.4,0-13.3-6.1-13.3-13.4c-0.1-7.5,5.9-13.7,14-13.7c3.9,0,7,1.2,9.2,3c4.6,3.5,6,9.2,6,18.2
				c0,8.1-1.6,14-5.6,17.5c-2.4,2.1-5.6,3.2-9.4,3.2C697.3,43.5,691.7,38.8,691.4,31.7z M714.7,15.1c0-5.7-4.4-9.5-9.8-9.5
				c-5.5,0-9.5,3.9-9.5,9.5s4.2,9.6,9.4,9.6C710.9,24.7,714.7,20.8,714.7,15.1z"/>
		</g>
	</g>
	<g>
		<g>
			<path class="st0" d="M0.2,424.2h5.1c0.7,7.1,5,10.7,12.9,10.7c5.8,0,9.9-2.6,9.9-7.8c0-5.7-5-7.1-12.5-8.7
				c-7.4-1.6-13.7-3.7-13.7-11.6c0-6.9,5.7-11,14.2-11c10.5,0,14.8,5.3,15.8,13h-5c-0.8-6-4.6-8.9-10.7-8.9c-5.7,0-9.4,2.4-9.4,6.7
				c0,4.7,4.7,6.1,10.9,7.4c8.1,1.6,15.5,3.6,15.5,13c0,7.8-6.4,12.2-15.4,12.2C6.3,439.1,0.7,432.6,0.2,424.2z"/>
			<path class="st0" d="M51.2,396.6h5.9l15.4,41.8h-5.7l-4.4-12.7H45.7l-4.5,12.7h-5.4L51.2,396.6z M47.2,421.3h13.7l-4.8-14
				c-0.8-2.3-1.9-5.9-1.9-5.9h-0.1c0,0-1.1,3.5-1.9,5.9L47.2,421.3z"/>
			<path class="st0" d="M73.8,424.2h5.1c0.7,7.1,5,10.7,12.9,10.7c5.8,0,9.9-2.6,9.9-7.8c0-5.7-5-7.1-12.5-8.7
				c-7.4-1.6-13.7-3.7-13.7-11.6c0-6.9,5.7-11,14.2-11c10.5,0,14.8,5.3,15.8,13h-5c-0.8-6-4.6-8.9-10.7-8.9c-5.7,0-9.4,2.4-9.4,6.7
				c0,4.7,4.7,6.1,10.9,7.4c8.1,1.6,15.5,3.6,15.5,13c0,7.8-6.4,12.2-15.4,12.2C79.9,439.1,74.3,432.6,73.8,424.2z"/>
			<path class="st0" d="M110.4,424.2h5.1c0.7,7.1,5,10.7,12.9,10.7c5.8,0,9.9-2.6,9.9-7.8c0-5.7-5-7.1-12.5-8.7
				c-7.4-1.6-13.7-3.7-13.7-11.6c0-6.9,5.7-11,14.2-11c10.5,0,14.8,5.3,15.8,13h-5c-0.8-6-4.6-8.9-10.7-8.9c-5.7,0-9.4,2.4-9.4,6.7
				c0,4.7,4.7,6.1,10.9,7.4c8.1,1.6,15.5,3.6,15.5,13c0,7.8-6.4,12.2-15.4,12.2C116.4,439.1,110.8,432.6,110.4,424.2z"/>
			<path class="st0" d="M159,420.6l-15.1-24.1h5.8l12,19.9h0.1l12.2-19.9h5.6l-15.3,24.2v17.6H159V420.6z"/>
		</g>
		<g>
			<path class="st0" d="M619,418.3c0-13,6.1-20.9,15.6-20.9s15.5,7.8,15.5,20.9c0,12.7-5.5,20.9-15.5,20.9
				C624.7,439.2,619,431,619,418.3z M645,418.3c0-10.2-3.4-16.7-10.4-16.7c-7.1,0-10.5,6.4-10.5,16.7c0,10.2,3.4,16.6,10.5,16.6
				C641.8,434.9,645,428.6,645,418.3z"/>
			<path class="st0" d="M655.3,418.3c0-13,6.1-20.9,15.6-20.9s15.5,7.8,15.5,20.9c0,12.7-5.5,20.9-15.5,20.9
				C660.9,439.2,655.3,431,655.3,418.3z M681.3,418.3c0-10.2-3.4-16.7-10.4-16.7c-7.1,0-10.5,6.4-10.5,16.7
				c0,10.2,3.4,16.6,10.5,16.6C678,434.9,681.3,428.6,681.3,418.3z"/>
			<path class="st0" d="M691.4,427.5h5c0.4,4.4,3.4,7.6,8.8,7.6c3,0,5.2-0.9,6.8-2.6c2.4-2.6,3.3-7.1,3.6-13h-0.1
				c-2.6,3.2-6.3,5.1-11,5.1c-7.4,0-13.3-6.1-13.3-13.4c-0.1-7.5,5.9-13.7,14-13.7c3.9,0,7,1.2,9.2,3c4.6,3.5,6,9.2,6,18.2
				c0,8.1-1.6,14-5.6,17.5c-2.4,2.1-5.6,3.2-9.4,3.2C697.3,439.2,691.7,434.5,691.4,427.5z M714.7,410.9c0-5.7-4.4-9.5-9.8-9.5
				c-5.5,0-9.5,3.9-9.5,9.5s4.2,9.6,9.4,9.6C710.9,420.5,714.7,416.5,714.7,410.9z"/>
		</g>
	</g>
	<g>
		<path class="st0" d="M469.3,75.3c12.6,0,22.8,10.2,22.8,22.8s-10.2,22.8-22.8,22.8c-12.6,0-22.8-10.2-22.8-22.8
			S456.7,75.3,469.3,75.3 M469.3,72.3c-14.2,0-25.8,11.6-25.8,25.8s11.6,25.8,25.8,25.8c14.2,0,25.8-11.6,25.8-25.8
			S483.5,72.3,469.3,72.3L469.3,72.3z"/>
		<circle class="st0" cx="469.3" cy="98.1" r="11.3"/>
	</g>
	<g>
		<path class="st0" d="M246.7,126.1l-1.3-2.6c-5-9.6-11-15-15.9-19.3c-5.9-5.3-10.6-9.5-10.6-18.1c0-6,4.6-14.5,15-14.5
			c6,0,10,2.2,12.8,7.2c2.8-4.9,6.9-7.2,12.8-7.2c10.3,0,15,8.5,15,14.5c0,8.6-4.7,12.8-10.6,18.1c-4.8,4.3-10.8,9.7-15.9,19.3
			L246.7,126.1z M233.8,74.7c-8.2,0-11.9,6.7-11.9,11.5c0,7.2,4,10.8,9.6,15.8c4.6,4.1,10.2,9.1,15.2,17.7
			c5-8.6,10.6-13.6,15.2-17.7c5.6-5,9.6-8.6,9.6-15.8c0-4.8-3.7-11.5-11.9-11.5c-5.8,0-9.1,2.4-11.4,8.2l-1.4,3.5l-1.4-3.5
			C242.9,77.1,239.6,74.7,233.8,74.7z"/>
	</g>
	<g>
		<path class="st0" d="M0.2,110.9c9,4.5,17.7,6.7,26,6.7c2.3,0,4.2-0.1,5.8-0.4s3.6-0.9,6.2-1.8c-2.4-1.3-4.1-2.7-5.1-4.2
			c-1.1-1.5-1.6-3.4-1.6-5.5c0-2.9,1-5.4,3.1-7.4c2.1-2,4.6-3.1,7.6-3.1c2.9,0,5.4,1,7.4,3s3,4.5,3,7.4c0,4.6-2.7,8.5-8.1,11.5
			s-12.2,4.5-20.5,4.5c-8.4,0-16.4-2-23.9-6L0.2,110.9z M52.8,90.6c-8.9-4.1-17.5-6.1-25.9-6.1c-3.6,0-7.5,0.7-11.8,2
			c2.3,1.2,4,2.6,5,4.1s1.5,3.4,1.5,5.6c0,3.2-1,5.7-2.9,7.7s-4.4,2.9-7.5,2.9c-3,0-5.6-1-7.7-3.1c-2.1-2-3.2-4.5-3.2-7.4
			c0-5.8,3.9-10.1,11.8-13c5.4-2,11.1-2.9,17.2-2.9c8.2,0,16,2,23.3,5.9v4.3H52.8z M10.9,88.6c-2,0-3.8,0.7-5.1,2.2
			c-1.4,1.5-2.1,3.3-2.1,5.5c0,2,0.7,3.7,2.2,5.2c1.4,1.5,3.1,2.3,5,2.3c2,0,3.8-0.8,5.3-2.4s2.3-3.4,2.3-5.5s-0.7-3.9-2.1-5.3
			C14.9,89.3,13.1,88.6,10.9,88.6z M42.1,97.9c-2,0-3.7,0.8-5.1,2.4c-1.5,1.6-2.2,3.5-2.2,5.7c0,1.9,0.7,3.6,2.2,5s3.2,2.1,5.2,2.1
			s3.8-0.7,5.2-2.1c1.5-1.4,2.2-3.1,2.2-5.1c0-2.2-0.7-4.1-2.2-5.7C45.9,98.7,44.1,97.9,42.1,97.9z"/>
	</g>
	<g>
		<g>
			<path class="st0" d="M695.1,97.4V90h9.5v-3.5h-9.2l-0.1-14.9l9.5,9.5v-4.8l-10.9-10.9L683,76.3V81l8.8-9.1v14.6h-9.4v3.4h9.3v7.5
				h-16.5l18.3,31.7l18.3-31.7C711.8,97.4,695.1,97.4,695.1,97.4z M681.8,101h23.5l-11.7,20.6L681.8,101z"/>
		</g>
	</g>
</g>
<g>
	<path class="st0" d="M527.8,267c29.4,0,58.2,0,87.7,0c-1,3-1.7,5.6-2.7,8.1c-6.1,15.3-14.6,29.3-24.6,42.3
		c-8.3,10.7-16.9,21.1-27.1,30.1c-9.9,8.7-20.7,15.9-33.4,20.1c-8.1,2.7-16.4,3.6-24.7,1.9c-11.2-2.3-18.6-9.6-20.2-21.8
		c-1.4-10.5-0.1-20.9,2.5-31c2.4-9,5.3-17.9,8-26.8c0.3-0.9,0.5-1.8,0.3-3c-0.8,1.5-1.7,3.1-2.5,4.6c-9.3,17.9-18.6,35.9-27.9,53.8
		c-2.1,4.1-4,8.3-6.1,12.4c-0.7,1.3-0.6,2.4-0.1,3.7c2.8,8.2,5.6,16.4,8.3,24.6c2.9,8.7,3.7,17.6,2.9,26.7c-0.5,5.6-2.1,11-5.1,15.9
		c-5.2,8.6-16.7,11.5-24.3,6.1c-4.2-3-6.4-7.4-7.5-12.4c-1.6-7.9-0.3-15.5,2.1-23c3.8-12.1,9.6-23.4,15.4-34.6
		c1.2-2.4,1.3-4.3,0.3-6.7c-7.8-19.9-10.7-40.5-8.7-61.7c1.4-14.5,5.3-28.3,13.9-40.4c11.8-16.7,27.6-27.6,48.1-30.6
		c6.8-1,13.6-0.7,20.2,1.6c9.4,3.3,13.1,10.5,12.6,19.7c-0.4,6.3-2.6,12-5.9,17.3C528.9,264.8,528.5,265.7,527.8,267z M604.3,271
		c-27.3-1.7-54.2-3-81.4,0.2c0.6-1.3,1.1-2.3,1.6-3.3c3.2-7.3,5.8-14.9,5.1-22.9c-0.9-10.6-6.1-16.4-16.5-17.7
		c-8.3-1.1-16.3,0.4-23.8,4c-11.5,5.5-20.6,13.8-27.6,24.4c-10.6,16-15.4,33.6-15.4,52.6c0,11.1,1.9,21.9,4.4,32.6
		c1,4.2,2.4,8.3,3.8,13c0.6-1,0.9-1.5,1.2-2c9.9-19.5,19.9-38.9,29.6-58.5c3.8-7.7,7-15.6,10.4-23.5c1.4-3.3,2.3-6.9,0.1-10.4
		c4.2,0,8.2,0,12.4,0c-0.5,1-0.8,1.7-1.2,2.4c-6.3,11.7-10.3,24.2-13.9,36.9c-3.6,12.5-5.8,25.3-4.8,38.4c0.3,5,1.3,9.8,3.4,14.3
		c3.5,7.7,9.2,12.4,17.8,13.2c9.9,1,19.3-1,28.3-5c11.6-5,21.3-12.7,30-21.7c15-15.5,25.2-34,32.5-54.1
		C601.7,279.9,602.9,275.6,604.3,271z M452.9,367.2c-6.2,13.8-12,27-15,41.2c-1,4.8-1.1,9.6,0.7,14.3c2,5.2,6.7,8.7,12,8.8
		c5.7,0.1,10.7-3.2,12.7-8.7c2.7-7.2,2.2-14.7,1.4-22.1c-0.8-7.7-3.2-15-6.4-22C456.7,375,454.9,371.4,452.9,367.2z"/>
	<path class="st0" d="M661.8,286c5.7,0,10.8,0,16.7,0c-4,2.9-2.9,6-1.6,9.2c4,9.6,8.1,19.2,12.1,28.8c0.2,0.4,0.4,0.8,0.7,1.2
		c0.2-0.3,0.5-0.5,0.6-0.8c3.9-9.7,7.8-19.3,11.7-29c1.3-3.3,2.2-6.5-2.1-9.4c5,0,9.1,0,13.4,0c-0.2,0.5-0.3,1-0.6,1.2
		c-4.1,3.1-6.3,7.5-8.4,12c-6.1,13.9-12.2,27.7-18.5,41.5c-2,4.5-4.5,8.8-7.1,13c-5.5,8.7-13.5,11.5-23.3,9.4c-3.7-0.8-7.4-2-11.3-3
		c0.5-3,0.9-5.5,1.5-8.9c1.5,1.4,2.5,2.3,3.4,3.2c5.1,4.8,11,6.7,17.9,4.6c3.5-1,6.2-3.2,8.4-6.1c4.5-5.8,7.2-12.5,10.4-19
		c0.4-0.7,0.2-2-0.2-2.8c-5.5-12.4-11-24.9-16.8-37.2c-1.1-2.3-3.2-4.1-4.9-6.1C663.5,287.3,662.9,286.9,661.8,286z"/>
	<path class="st0" d="M611.8,309.5c-0.5-13.6,11.1-25.4,24.9-25.3c13.7,0.2,24.4,11.4,24.4,25.4c0,14.6-10.6,25.3-24.8,25.1
		C621.8,334.7,611.7,324.3,611.8,309.5z M618.6,305.3c0.5,8.7,2.7,16.3,9,22.1c9.2,8.4,22.7,4.5,25.7-7.5
		c2.6-10.5-0.4-19.9-7.6-27.6c-4.1-4.5-9.6-6.1-15.7-4.2c-5.9,1.8-9.3,6-10.6,11.9C618.9,301.8,618.8,303.8,618.6,305.3z"/>
</g>
<g>
	<path class="st0" d="M126.2,158.7c-4.5,1-8.4,1.9-12.8,2.9c1.1-3.8,1.9-7.3,3.2-10.7c4.2-11.3,10.2-21.6,18.6-30.4
		c9.1-9.5,19.9-15.7,32.9-18.2c10.6-2,21.1-1.6,31.2,2.1c6.8,2.4,12.7,6.5,17.7,11.7c9.6,10.1,16.7,21.8,22.1,34.5
		c4.4,10.4,8.4,21,12.6,31.5c0.4,1,0.8,2,1.3,3.5c0.6-0.9,1.1-1.4,1.3-2c8.6-21.2,17.3-42.3,25.7-63.5c1.5-3.7,2.3-7.8,2.8-11.8
		c0.3-2.5-0.4-5.1-0.7-8c4.5,0.9,9,2.8,14,4.2c-1,1.8-1.9,3.4-2.7,5.1c-3.9,8-7.7,16-11.5,24.1c-0.5,1-0.8,2.3-0.6,3.4
		c1.4,12.7,2.8,25.3,4.4,38c2,15.8,4.2,31.6,6.4,47.3c0.2,1.8,0.6,3.7,0.7,5.5c0.1,1.7,1.1,2.5,2.7,2.6c0.4,0,0.9,0.1,1.3,0.1
		c9.1-0.3,18.2-0.7,27.4-1.1c6.3-0.3,11.7-2.9,16.3-7c0.5-0.4,1-0.9,1.5-1.3c0.2-0.1,0.4-0.2,1-0.4c-1.4,4.5-2.7,8.8-4.1,13.2
		c-17.3-0.2-34.4-0.5-52-0.7c-1.6-30.3-4.4-60.3-8.9-90.8c-0.7,1.5-1.2,2.4-1.6,3.4c-17.4,40.8-34.9,81.6-52.3,122.5
		c-9.6,22.6-19.2,45.3-28.8,68c-0.5,1.2-0.3,2.6-0.4,4.2c-4.3,0-8.9,0-13.8,0c0.3-0.6,0.4-1,0.7-1.3c6.6-7.7,10.8-16.8,15.1-25.8
		c15.2-31.1,28.9-62.9,42.4-94.8c3.5-8.2,7-16.4,10.4-24.6c0.4-1,0.6-2.4,0.3-3.4c-4.2-14.7-9-29.2-15.3-43.1
		c-0.3-0.6-0.6-1.2-1-2.1c-0.7,1.3-1.2,2.3-1.7,3.4c-8.1,17.7-18.7,33.9-31.5,48.5c-13.7,15.7-29.6,28.8-47.9,38.9
		c-13.2,7.3-26.9,13.5-41.7,17.1c-13,3.2-26.2,4.9-39.6,3.6c-7.7-0.8-15.1-2.8-21.3-8c-6-5-9-11.6-10.3-19
		c-2.2-13,0.3-25.6,3.5-38.1c1.1-4.3,2.5-8.6,3.9-13.3c1.4,0,2.8,0,4.2,0c41.3,0.1,82.5,0.3,123.8,0.4c10,0,20-0.3,30-0.4
		c1.7,0,2.8-0.4,3.7-2c8-12.5,13.8-26,18.7-39.9c0.3-0.9,0.2-2.2-0.3-3c-4.5-7.7-9.8-14.8-17-20.4c-6.5-5-13.7-7.8-21.7-8.7
		c-9.3-1.1-18.4-0.3-27.2,3.1c-8.8,3.4-16.4,8.5-22.8,15.3c-7,7.3-12,15.7-14.2,25.6C123.9,152.1,123,155.4,126.2,158.7z M205.3,183
		c-6.7-0.3-12.5-0.7-18.3-0.7c-37.7-0.3-75.4-0.6-113.2-0.8c-3.5,0-7,0.5-10.4,1.2c-5.3,1.2-9.3,4.2-11.3,9.6
		c-0.6,1.6-1.3,3.2-2,4.9c-4.1,10.6-5.6,21.5-3,32.6c3,12.9,9.9,20,23.8,23.5c10.2,2.6,20.6,1.5,30.8-0.4
		c19.1-3.6,36.8-11.2,53.3-21.4c16.2-10,30.2-22.7,42.1-37.6C199.8,190.5,202.3,187,205.3,183z"/>
	<path class="st0" d="M528.4,169c-2.1,2.3-2.6,4.6-1.5,7.2c4.4,10.6,8.8,21.3,13.5,32.5c1-2.5,1.8-4.4,2.6-6.3
		c3.2-7.9,6.4-15.9,9.6-23.8c1.3-3.3,2.5-6.7-2-9.7c5,0,9.1,0,13.4,0c-0.2,0.5-0.3,1-0.6,1.2c-4,3.1-6.3,7.5-8.4,12
		c-6.1,13.7-12.1,27.5-18.3,41.2c-2.1,4.6-4.5,9-7.2,13.3c-5.5,8.7-13.5,11.5-23.3,9.4c-3.7-0.8-7.4-2-11.4-3c0.5-3,1-5.6,1.6-9
		c1.5,1.4,2.3,2.2,3.1,3.1c8.3,8.3,20.1,7.8,26.8-1.8c4-5.7,6.9-12.2,10.1-18.4c0.4-0.8,0.1-2.2-0.3-3.1
		c-5.3-11.9-10.6-23.9-16-35.8c-1.4-3.1-3.4-5.6-6.1-7.6c-0.4-0.3-0.7-0.7-1.5-1.4C518.3,169,523.3,169,528.4,169z"/>
	<path class="st0" d="M282,243c0.6-3.2,1-5.6,1.5-8.8c1.3,1.1,2.1,1.8,2.9,2.6c3.5,3.6,7.7,5.7,12.8,5.9c5.2,0.2,9.5-1.8,12.8-5.6
		c2.1-2.4,3.8-5.1,5.4-7.8c2.1-3.7,3.8-7.7,5.8-11.5c0.7-1.4,0.8-2.5,0.2-4c-5-11.1-10-22.2-14.9-33.4c-1.9-4.3-4.2-8.5-8.8-10.9
		c2.6-0.9,12.1-1.1,15.7-0.4c-0.6,1.5-1.7,3.1-1.8,4.6c-0.1,1.7,0.7,3.4,1.3,5c3.9,9.3,7.8,18.6,11.8,27.9c0.2,0.5,0.6,0.9,1.1,1.6
		c4.3-10.8,8.5-21.3,12.7-31.8c1.1-2.9,0.7-5.4-2.7-7.1c0.3-0.1,0.5-0.3,0.8-0.4c4.1,0,8.2,0,12.4,0c-0.1,0.3,0,0.8-0.2,0.9
		c-4.4,3.3-6.7,8-8.9,12.9c-6.3,14.3-12.6,28.5-19,42.7c-1.8,3.9-3.9,7.6-6.2,11.2c-5.4,8.5-13.3,11.4-23.1,9.4
		C289.8,245.3,286,244.1,282,243z"/>
	<path class="st0" d="M469.4,185.1c-11.2,0.4-22.3,0.9-33.2,1.3c-2.3,8.4,1.5,18.7,8.4,23.3c4.8,3.2,10,3.3,15.2,1.5
		c3.1-1,5.9-2.9,8.8-4.4c0.8-0.4,1.5-1.5,2.4-0.1c-4.1,7.2-15.4,12.2-24.2,10.8c-8.3-1.4-14.8-8.1-16.4-17.2
		c-1.3-7.4-0.9-14.7,2.6-21.5c5.1-10,16.2-14.1,26.6-9.9C466.3,171.5,470,177.5,469.4,185.1z M436.5,183.7
		c8.6-0.8,16.9-1.5,25.1-2.2c-0.1-6.8-3.2-10.2-9.2-10.8C444.2,170,438,174.8,436.5,183.7z"/>
	<path class="st0" d="M358.3,216.5c-1.7-6.5-2-9.3-1.3-12.1c0.9,1.2,1.5,2.2,2.2,3.1c3.7,5.2,8.8,7.9,15.3,7.3
		c3-0.2,5.6-1.3,7.3-3.9c2.7-3.9,1.9-8.6-2.2-11.2c-2.2-1.4-4.7-2.3-7.2-3.2c-3.9-1.5-8-2.4-11.4-4.9c-4.9-3.7-6.2-8.7-5-14.3
		c1.2-5.6,5.3-8.5,10.5-9.7c7.2-1.7,14.2-0.6,21.2,3c-0.6,2.3-1.2,4.6-2,7.8c-1.3-1.3-2-2.1-2.7-2.8c-4.6-4.5-9.9-6.4-16.2-4.7
		c-3.5,0.9-5.8,3.2-6.3,6.8c-0.5,3.7,0.9,6.6,4.2,8.2c4,1.9,8.2,3.2,12.2,4.9c2.4,1,4.8,2.2,6.9,3.8c7.1,5.5,4.4,16.5-0.7,20.2
		c-3.4,2.4-7.1,3.7-11.1,3.5C367.4,218,362.8,217.1,358.3,216.5z"/>
	<path class="st0" d="M424.7,210.8c-5,3.6-10,7.4-16.7,7.2c-4-0.1-6.7-1.9-7.9-5.8c-0.6-2.1-0.9-4.3-0.9-6.5c-0.1-9.7,0-19.3,0-29
		c0-1.2,0-2.4,0-3.7c-2.3-0.1-4.2-0.2-6.3-0.3c0-2.6,2.1-3.8,3.3-5.4c1.3-1.8,2.7-3.5,4.2-5.1c1.4-1.5,2.2-3.7,4.9-4.7
		c0,3.7,0,7.2,0,11.1c6.2,0,12.1,0,18.1,0c0,1.6,0,2.7,0,4.2c-5.9,0-11.7,0-17.7,0c-0.1,1.1-0.3,1.9-0.3,2.8c0,9-0.1,18,0,27
		c0,1.8,0.3,3.7,0.7,5.5c0.7,2.8,2.2,4.3,5.1,4.1c3.5-0.3,6.9-1.2,10.3-1.8c1-0.2,1.9-0.4,2.9-0.7
		C424.4,210,424.6,210.4,424.7,210.8z"/>
	<path class="st0" d="M491.2,216.1c-4.6,0-9.4,0-14.2,0c-0.1-0.3-0.2-0.5-0.1-0.5c4.3-3.6,4.2-8.6,4.3-13.6c0.1-7.3,0.1-14.7,0-22
		c-0.1-4,0.6-8.6-4.7-10.6c0.1-0.2,0.2-0.5,0.3-0.7c3.7-0.9,7.5-1.8,11.7-2.9c-0.4,4.3-0.8,7.9-1.3,12.4c1.1-1,1.7-1.5,2.2-2.1
		c2.8-3.1,5.7-6.1,9.6-7.8c3.9-1.7,7.8-1.9,12-0.6c-0.7,2.6-1.3,4.9-2,7.5c-1.3-0.6-2.2-1.1-3.2-1.5c-3.4-1.4-6.6-1.3-9.7,0.7
		c-4.6,3.1-7.9,7.3-8.2,12.9c-0.5,7.2-0.4,14.5,0,21.6C488,211.3,489.9,213.5,491.2,216.1z"/>
</g>
</svg>
